<svg width="32" height="32" viewBox="0 0 32 32" xmlns="http://www.w3.org/2000/svg" id='icon1'>
<g clip-path="url(#clip0)">
<path d="M28.3496 11.3539C29.7317 11.2237 30.8169 10.0567 30.8169 8.64023C30.8169 7.1373 29.5947 5.9144 28.0925 5.9144H27.9959C27.8843 5.27769 27.6008 4.71519 27.1702 4.29184C26.5969 3.72837 25.7832 3.44028 24.8167 3.45664L24.6055 3.46055C21.7153 3.51279 21.1143 3.52378 16.3484 1.07993C13.3401 -0.463284 9.86621 -0.441555 7.28223 1.13706C5.46631 2.24619 4.35108 3.96323 4.15503 5.91416H3.97437C2.47217 5.91416 1.25 7.13706 1.25 8.64023C1.25 10.0567 2.33521 11.2237 3.71729 11.3539L3.13403 24.6434C1.67407 27.2115 1.31543 29.1744 2.06787 30.4794C2.45166 31.1446 3.30957 31.9376 5.219 31.9376H26.8496C28.759 31.9376 29.6172 31.1446 30.0007 30.4794C30.7529 29.1744 30.3936 27.211 28.9329 24.6432L28.3496 11.3539ZM2.49878 8.64023C2.49878 7.82578 3.16065 7.16318 3.97437 7.16318H13.5388C13.8835 7.16318 14.1631 6.88364 14.1631 6.53867C14.1631 6.19395 13.8835 5.9144 13.5388 5.9144H5.4126C5.60645 4.40708 6.50073 3.07773 7.93311 2.20273C10.1484 0.849461 13.1545 0.845066 15.7786 2.19126C20.8237 4.77817 21.6296 4.76328 24.6282 4.70908L24.8389 4.70518C25.4702 4.69419 25.9614 4.85483 26.2949 5.18247C26.4873 5.37144 26.6301 5.62461 26.7141 5.91416H18.5281C18.1834 5.91416 17.9038 6.19395 17.9038 6.53867C17.9038 6.8834 18.1834 7.16294 18.5281 7.16294H28.0925C28.9063 7.16294 29.5681 7.82578 29.5681 8.64023C29.5681 9.45469 28.9063 10.1173 28.0925 10.1173H3.97437C3.16065 10.1175 2.49878 9.45493 2.49878 8.64023ZM28.9187 29.8556C28.5217 30.5443 27.5745 30.6888 26.8496 30.6888H5.219C4.49414 30.6888 3.54688 30.5443 3.14966 29.8556C2.63794 28.9684 3.04346 27.2919 4.29151 25.1351C4.34204 25.048 4.37061 24.9501 4.375 24.8497L4.96655 11.3663H27.1001L27.6919 24.8497C27.6963 24.9503 27.7249 25.0482 27.7752 25.1351C29.0242 27.2921 29.4304 28.9686 28.9187 29.8556Z" fill="#96C93D"/>
<path d="M20.0806 16.9031C19.6406 16.4626 18.9634 16.3589 18.1646 16.6042C18.1738 16.4788 18.1794 16.352 18.1794 16.2244C18.1794 14.3799 17.231 12.9348 16.02 12.9348C14.8101 12.9348 13.8623 14.3799 13.8623 16.2244C13.8623 16.352 13.8679 16.4788 13.8772 16.6042C13.0784 16.3589 12.4009 16.4626 11.9612 16.9031C11.3242 17.5405 11.4075 18.6606 12.1282 19.8354C12.0696 19.8782 12.0134 19.925 11.9612 19.9775C11.1045 20.8347 11.585 22.6081 13.0789 24.1035C13.773 24.7961 14.5586 25.2993 15.2959 25.5239C15.3284 25.5371 15.3618 25.5491 15.3955 25.5603V27.2109C15.3955 27.5557 15.6751 27.8352 16.02 27.8352C16.3648 27.8352 16.6443 27.5557 16.6443 27.2109V25.5605C16.6785 25.5493 16.7122 25.5373 16.7449 25.5237C17.4829 25.2991 18.2688 24.7961 18.9634 24.103C20.4568 22.6081 20.9373 20.8347 20.0806 19.9775C20.0283 19.925 19.9724 19.8782 19.9136 19.8354C20.6343 18.6604 20.7178 17.5405 20.0806 16.9031ZM19.1973 17.7856C19.3543 17.9426 19.2607 18.6785 18.575 19.5813C18.4055 19.6089 18.2295 19.6528 18.0471 19.7158C17.585 19.8752 17.1043 20.1433 16.6445 20.4936V19.1111C16.7056 19.0437 16.7705 18.9751 16.8403 18.9043C17.0918 18.6528 17.3628 18.4294 17.6345 18.2463C17.635 18.2461 17.6355 18.2458 17.6357 18.2454C17.9141 18.0581 18.1934 17.9126 18.4546 17.8225C18.8528 17.6848 19.1187 17.707 19.1973 17.7856ZM16.02 14.1836C16.3826 14.1836 16.9307 14.9976 16.9307 16.2244C16.9307 16.6179 16.8738 16.9956 16.7664 17.3291C16.5107 17.5144 16.26 17.7256 16.0208 17.9582C15.782 17.7256 15.5313 17.5144 15.2752 17.3289C15.1677 16.9954 15.1111 16.6177 15.1111 16.2244C15.1111 14.9976 15.6582 14.1836 16.02 14.1836ZM12.8445 17.7856C12.9231 17.707 13.1892 17.6848 13.5874 17.8225C13.8455 17.9116 14.1213 18.0547 14.3962 18.2385C14.3989 18.2405 14.4016 18.2424 14.4046 18.2444C14.6768 18.4275 14.9475 18.6504 15.1983 18.9009C15.2664 18.97 15.3323 19.04 15.3955 19.1106V20.4924C14.9363 20.1426 14.4563 19.875 13.9946 19.7158C13.8123 19.6528 13.6362 19.6089 13.4668 19.5813C12.781 18.6785 12.6875 17.9426 12.8445 17.7856ZM13.9617 23.2202C12.833 22.0906 12.6643 21.0403 12.8445 20.8601C12.9234 20.7812 13.1892 20.759 13.5874 20.8962C14.104 21.0745 14.6921 21.4687 15.2012 21.9783C15.2676 22.0444 15.3323 22.1135 15.3955 22.1838V24.2319C14.9263 24.0322 14.418 23.6755 13.9617 23.2202ZM18.0808 23.2197C17.6238 23.6758 17.1145 24.0327 16.6445 24.2324V22.1841C16.7065 22.1157 16.772 22.0471 16.8406 21.9783C17.3496 21.4687 17.9377 21.0745 18.4544 20.8962C18.8525 20.759 19.1187 20.7812 19.1973 20.8601C19.3774 21.0403 19.2087 22.0906 18.0808 23.2197Z" fill="#96C93D"/>
<path d="M16.0344 7.16308H16.0469C16.3916 7.16308 16.6711 6.88354 16.6711 6.53857C16.6711 6.19385 16.3916 5.91431 16.0469 5.91431H16.0344C15.6895 5.91431 15.4102 6.19385 15.4102 6.53857C15.4102 6.88354 15.6895 7.16308 16.0344 7.16308Z" fill="#96C93D"/>
</g>
<defs>
<rect width="32" height="32"/>
</clipPath>
</defs>
</svg>