<svg width="32" height="32" viewBox="0 0 32 32" fill="none" xmlns="http://www.w3.org/2000/svg" id='icon11'>
<path d="M25.5628 20.679C24.8137 19.381 23.7064 18.3947 22.3603 17.8268C21.9526 17.6548 21.5434 17.5342 21.1363 17.4627C21.0504 16.4574 20.9581 14.4937 21.235 12.1497C22.5621 11.12 24.1296 10.2241 25.91 9.74917C26.4108 9.61559 26.7085 9.10136 26.5749 8.60051C26.4413 8.09973 25.9271 7.8021 25.4263 7.93556C25.1635 8.00563 24.9013 8.08484 24.6399 8.17275C24.0608 7.06394 22.1736 3.86423 18.8047 1.92417C14.7668 -0.401112 10.2311 0.0229011 10.0401 0.042109C9.73923 0.072266 9.47138 0.245575 9.32054 0.507541C9.16962 0.769507 9.15423 1.08816 9.27905 1.36345C9.33818 1.49384 10.4145 3.82456 12.6307 5.96603C9.63831 6.74429 7.55091 8.2502 7.4493 8.32441C7.20523 8.50278 7.06195 8.78778 7.06451 9.0901C7.06702 9.39242 7.21511 9.67503 7.46212 9.84921C7.61791 9.95908 11.304 12.5206 15.915 12.5206C15.9496 12.5206 15.9847 12.5205 16.0195 12.5202C16.7792 12.5138 17.5132 12.4373 18.2105 12.3139C17.9324 12.5904 17.6581 12.8772 17.3887 13.1754C16.2888 14.3925 15.5007 15.5231 15.0432 16.2378C14.6891 16.101 14.3118 15.9979 13.9126 15.9321C12.4709 15.6946 11.0083 15.938 9.68236 16.6364C8.47357 17.273 7.42784 18.2546 6.65833 19.475C5.88876 20.6954 5.45368 22.062 5.40006 23.4271C5.34131 24.9246 5.75193 26.3495 6.58763 27.5479C7.0179 28.1649 7.52919 28.6626 8.10731 29.0271C8.68542 29.3917 9.35482 29.6386 10.097 29.7609C10.4508 29.8192 10.8058 29.848 11.16 29.848C12.4975 29.848 13.8194 29.4375 14.9847 28.6636C14.9929 28.678 15.0005 28.6927 15.0088 28.7071C15.7578 30.0051 16.8652 30.9914 18.2114 31.5593C18.9045 31.8517 19.6024 31.9999 20.2858 31.9999C20.9692 31.9999 21.6672 31.8517 22.3602 31.5593C23.7064 30.9914 24.8138 30.0051 25.5628 28.7071C26.2457 27.5237 26.6067 26.1357 26.6067 24.693C26.6067 23.2503 26.2456 21.8623 25.5628 20.679ZM11.7302 1.89527C13.2484 1.96184 15.6755 2.28824 17.868 3.55077C20.0624 4.81449 21.5635 6.75199 22.3824 8.03135C20.8684 7.96672 18.446 7.64168 16.2428 6.3729C14.0501 5.11018 12.5496 3.17462 11.7302 1.89527ZM16.0037 10.6433C15.9744 10.6436 15.9456 10.6437 15.9164 10.6437C13.421 10.6437 11.183 9.74686 9.8444 9.06645C10.9186 8.49684 12.5784 7.77608 14.493 7.50116C14.4979 7.50047 14.5025 7.49916 14.5074 7.49834C14.7638 7.67253 15.0298 7.84039 15.306 7.9995C17.0609 9.01014 18.9093 9.50103 20.4547 9.73197C19.2099 10.2157 17.6656 10.6294 16.0037 10.6433ZM19.2017 13.9917C19.1325 15.4835 19.1898 16.7076 19.2538 17.4966C18.9067 17.5702 18.5584 17.6804 18.2114 17.8269C17.9516 17.9365 17.7009 18.0621 17.4597 18.202C17.4469 18.1833 17.435 18.1639 17.4221 18.1453C17.1844 17.8044 16.9211 17.5013 16.6363 17.2356C17.1081 16.5044 17.9782 15.2691 19.2017 13.9917ZM10.4024 27.9091C9.90885 27.8277 9.47351 27.6697 9.1085 27.4396C8.74349 27.2094 8.41338 26.8847 8.12721 26.4744C7.19709 25.1407 6.73992 22.8646 8.24596 20.4763C9.75206 18.088 12.0031 17.5198 13.6072 17.7842C14.1008 17.8656 14.5361 18.0235 14.9011 18.2537C15.2661 18.4839 15.5963 18.8086 15.8824 19.219C15.9171 19.2687 15.9503 19.3194 15.983 19.3703C15.6132 19.7602 15.2862 20.198 15.0087 20.679C14.3259 21.8623 13.9649 23.2504 13.9649 24.6931C13.9649 25.445 14.0638 26.1816 14.2543 26.8825C13.1016 27.7688 11.7543 28.1319 10.4024 27.9091ZM21.6307 29.83C21.1697 30.0245 20.7173 30.1231 20.2858 30.1231C19.8543 30.1231 19.4018 30.0245 18.9409 29.8301C17.4429 29.198 15.842 27.5167 15.842 24.6931C15.842 21.8696 17.4429 20.1883 18.9409 19.5562C19.4018 19.3618 19.8543 19.2632 20.2858 19.2632C20.7173 19.2632 21.1698 19.3618 21.6307 19.5562C23.1288 20.1883 24.7296 21.8696 24.7296 24.6931C24.7297 27.5166 23.1288 29.198 21.6307 29.83Z" fill="#96C93D"/>
</svg>