<svg width="32" height="32" viewBox="0 0 32 32" fill="none" xmlns="http://www.w3.org/2000/svg" id='icon2'>
<g clip-path="url(#clip0)">
<path fill-rule="evenodd" clip-rule="evenodd" d="M31.9411 17.2088C31.4339 11.781 26.9633 8.63473 23.0189 5.85903L23.0165 5.85735C20.6514 4.19285 18.4172 2.62053 17.3614 0.789547C17.0761 0.295336 16.5673 0 15.9998 0C15.4326 0 14.9238 0.295336 14.6385 0.789547C14.6136 0.832749 14.5875 0.875578 14.5615 0.918407L13.4829 2.28968C12.3075 3.51832 10.6782 4.66503 8.981 5.85903L8.93779 5.88945L8.93717 5.88988C8.7087 6.05071 8.47834 6.21289 8.24732 6.3767L6.6902 7.50702C3.76702 9.70024 1.02372 12.2908 0.236405 16.0349L0.0326871 17.5294C-0.204549 20.9278 0.855007 24.0994 3.03408 26.4915C4.41839 28.011 6.20865 29.1968 8.35532 30.0158C10.5903 30.8683 13.1622 31.3007 16.0001 31.3007C18.838 31.3007 21.41 30.8683 23.645 30.0158C25.7916 29.1968 27.5819 28.0114 28.9662 26.4915C31.2134 24.0245 32.27 20.7278 31.9411 17.2088ZM16.0001 29.8705C21.1288 29.8705 25.3581 28.3283 27.9089 25.5284C29.9103 23.3311 30.8123 20.5003 30.5174 17.3421C30.0716 12.5709 26.068 9.7535 22.1958 7.02882L22.1954 7.02849C19.6965 5.27001 17.3363 3.60906 16.1227 1.50423C16.0944 1.45507 16.053 1.43049 16.0001 1.43049C15.9469 1.43049 15.9059 1.45507 15.8776 1.50423C14.6636 3.60906 12.3033 5.27001 9.80454 7.02849L9.80406 7.02882L9.80396 7.0289C5.93223 9.75355 1.92871 12.571 1.48292 17.3421C1.18758 20.5003 2.0896 23.3311 4.0914 25.528C6.64178 28.3283 10.8711 29.8705 16.0001 29.8705Z" fill="#96C93D"/>
<path d="M21.2305 8.32447C20.9073 8.09617 20.4604 8.17364 20.2328 8.49728C20.006 8.81943 20.0827 9.26448 20.4045 9.49203C23.7012 11.8227 27.1775 14.4475 27.4743 17.6262C27.687 19.9047 27.0564 21.9251 25.6498 23.4696C24.4688 24.7656 22.6983 25.7377 20.5293 26.2803C19.8168 26.4587 19.0597 26.3183 18.4519 25.896C17.8362 25.468 17.4359 24.7962 17.3536 24.0528L17.1052 21.8168C17.0411 21.2414 16.5577 20.7866 15.9786 20.7974C15.4147 20.8082 14.9633 21.219 14.9008 21.7821L14.6486 24.0528C14.566 24.7962 14.1656 25.468 13.55 25.896C12.9425 26.3183 12.1854 26.4583 11.473 26.2803C9.30393 25.7377 7.53304 24.7656 6.35245 23.4696C4.94579 21.9255 4.3149 19.9051 4.52793 17.6262C4.84225 14.2595 8.1077 11.9616 11.5679 9.52666C12.4264 8.92259 13.2371 8.35166 14.0282 7.75019C15.1846 6.87088 16.7972 6.86679 17.9577 7.7379C18.2645 7.96843 18.7096 7.93454 18.9554 7.63958C19.2183 7.3245 19.1628 6.85748 18.8396 6.61205C17.1685 5.34058 14.8337 5.34058 13.1623 6.61205C12.3925 7.1975 11.5921 7.76061 10.7415 8.35948C7.0068 10.9873 3.47954 13.4696 3.10376 17.4933C2.85237 20.1833 3.61026 22.5829 5.29475 24.4327C6.66603 25.9381 8.68235 27.0565 11.1255 27.6676C12.2387 27.9462 13.42 27.7283 14.3663 27.0702C15.2039 26.4881 15.7845 25.614 16.0009 24.6293C16.2173 25.614 16.7979 26.4878 17.6355 27.0702C18.3122 27.5406 19.1085 27.786 19.9144 27.786C20.2358 27.786 20.5587 27.7469 20.876 27.6676C23.3195 27.0565 25.3354 25.9381 26.7067 24.4327C28.3916 22.5829 29.1495 20.1833 28.8981 17.4933C28.542 13.6789 24.8003 10.8477 21.2305 8.32447Z" fill="#96C93D"/>
<path d="M8.6919 21.3807C8.84534 21.3807 8.9999 21.3315 9.13062 21.2299L9.5604 20.8958C9.87212 20.653 9.92836 20.2038 9.68591 19.8921C9.44346 19.5804 8.99431 19.5241 8.68259 19.7666L8.25281 20.101C7.94072 20.3435 7.88485 20.793 8.1273 21.1044C8.26808 21.2857 8.47887 21.3807 8.6919 21.3807Z" fill="#96C93D"/>
<path d="M9.02789 17.3383C9.27443 17.03 9.22453 16.5801 8.91616 16.3332L8.67743 16.1421C8.36906 15.8956 7.9188 15.9455 7.67225 16.2538C7.42571 16.5622 7.47561 17.0121 7.78398 17.259L8.02271 17.4501C8.15455 17.5555 8.31208 17.6069 8.46888 17.6069C8.67892 17.6069 8.88674 17.5149 9.02789 17.3383Z" fill="#96C93D"/>
<path d="M12.1144 13.9764C12.276 13.9764 12.4384 13.922 12.5717 13.8106C12.8752 13.5578 12.9162 13.1067 12.6633 12.8032L12.4246 12.5168C12.1717 12.2133 11.7207 12.1723 11.4176 12.4252C11.114 12.6781 11.0731 13.1291 11.326 13.4322L11.5647 13.719C11.7062 13.8888 11.9095 13.9764 12.1144 13.9764Z" fill="#96C93D"/>
<path d="M16.464 10.2756L16.7027 10.1326C17.0416 9.92924 17.1511 9.49015 16.9481 9.15125C16.7448 8.81271 16.3057 8.70285 15.9671 8.90619L15.728 9.0492C15.3895 9.25255 15.2796 9.69163 15.483 10.0305C15.6167 10.254 15.8539 10.3776 16.0967 10.3776C16.2219 10.3776 16.3489 10.3449 16.464 10.2756Z" fill="#96C93D"/>
<path d="M19.2443 13.5705C19.3843 13.7627 19.6022 13.8651 19.823 13.8651C19.969 13.8651 20.1161 13.8204 20.2431 13.728L20.7686 13.3459C21.0882 13.1135 21.1586 12.6666 20.9266 12.3471C20.6942 12.0275 20.2469 11.9572 19.9273 12.1892L19.4018 12.5717C19.0827 12.8037 19.0119 13.251 19.2443 13.5705Z" fill="#96C93D"/>
<path d="M23.2291 15.5731C23.1516 15.1858 22.7747 14.9347 22.3878 15.0122C22.0004 15.0897 21.7491 15.4666 21.8265 15.8535L21.9222 16.3313C21.99 16.6713 22.2887 16.9063 22.6228 16.9063C22.669 16.9063 22.7163 16.9019 22.7636 16.8922C23.1509 16.8147 23.4023 16.4382 23.3248 16.0509L23.2291 15.5731Z" fill="#96C93D"/>
<path d="M23.6572 19.9993L24.0393 20.1904C24.1421 20.2418 24.2512 20.266 24.3588 20.266C24.621 20.266 24.8735 20.1211 24.9991 19.8705C25.1756 19.5174 25.0322 19.088 24.6791 18.9111L24.297 18.72C23.9436 18.5435 23.5142 18.6865 23.3373 19.04C23.1607 19.393 23.3041 19.8228 23.6572 19.9993Z" fill="#96C93D"/>
<path d="M21.082 22.9106V23.0063C21.082 23.4011 21.4023 23.7214 21.7971 23.7214C22.1923 23.7214 22.5125 23.4011 22.5125 23.0063V22.9106C22.5125 22.5158 22.1923 22.1956 21.7971 22.1956C21.4023 22.1956 21.082 22.5158 21.082 22.9106Z" fill="#96C93D"/>
<path d="M12.9903 18.9703C13.3292 18.7677 13.4398 18.3287 13.2372 17.9897L12.7743 17.2155C12.5717 16.8766 12.1326 16.766 11.7937 16.9686C11.4544 17.1712 11.3442 17.6102 11.5468 17.9492L12.0093 18.7234C12.1434 18.9476 12.3806 19.072 12.6238 19.072C12.7486 19.072 12.8752 19.0392 12.9903 18.9703Z" fill="#96C93D"/>
<path d="M16.9556 17.5908C17.105 17.5908 17.2558 17.5442 17.3843 17.4478L17.5754 17.3044C17.8912 17.0675 17.9552 16.6191 17.7184 16.3033C17.4815 15.9875 17.0335 15.9235 16.7173 16.1603L16.5262 16.3037C16.2104 16.5406 16.1464 16.989 16.3832 17.3048C16.5236 17.4921 16.7385 17.5908 16.9556 17.5908Z" fill="#96C93D"/>
<path d="M10.9988 22.7999C10.7816 23.1299 10.8729 23.5734 11.2028 23.7906L11.4021 23.9217C11.5235 24.0014 11.6598 24.0397 11.7946 24.0397C12.0274 24.0397 12.2553 23.9265 12.3928 23.7176C12.6099 23.388 12.5186 22.9444 12.1887 22.7273L11.9894 22.5958C11.6594 22.3787 11.2159 22.4703 10.9988 22.7999Z" fill="#96C93D"/>
<path d="M15.6015 12.8643C15.2853 12.6274 14.8372 12.6915 14.6 13.0073C14.3632 13.3231 14.4272 13.7715 14.743 14.0084L14.9341 14.1518C15.0629 14.2482 15.2134 14.2948 15.3627 14.2948C15.5802 14.2948 15.7948 14.1957 15.9355 14.0088C16.1724 13.693 16.1083 13.2445 15.7925 13.0077L15.6015 12.8643Z" fill="#96C93D"/>
<path d="M19.0223 19.0068C18.6692 19.1833 18.5258 19.6127 18.7027 19.9661L18.7504 20.0615C18.8756 20.3121 19.1281 20.457 19.3906 20.457C19.4979 20.457 19.607 20.4328 19.7098 20.3814C20.0632 20.2049 20.2062 19.7755 20.0297 19.422L19.9816 19.3267C19.8051 18.9733 19.3757 18.8302 19.0223 19.0068Z" fill="#96C93D"/>
</g>
<defs>
<clipPath id="clip0">
<rect width="32" height="32" fill="white"/>
</clipPath>
</defs>
</svg>