<svg width="32" height="32" viewBox="0 0 32 32" fill="none" xmlns="http://www.w3.org/2000/svg" id='icon3'>
<g clip-path="url(#clip0)">
<path d="M29.4903 7.97686L30.8636 6.61655C31.5965 5.89071 32.0001 4.92192 32.0001 3.88872C32.0001 2.85553 31.5965 1.88673 30.8637 1.1609C29.3521 -0.336347 26.8929 -0.336347 25.3813 1.1609L24.0717 2.45807C23.4178 1.24199 22.1262 0.411993 20.6455 0.411993C18.5054 0.412056 16.7643 2.14057 16.7643 4.2653C16.7643 4.26774 16.7643 4.2703 16.7644 4.2728L16.7955 8.18163C16.0023 7.97918 15.163 7.94198 14.3257 8.08415C12.5274 8.38933 10.9868 9.46979 10.0989 11.0484L0.201133 28.6462C0.173685 28.6951 0.150551 28.7463 0.132232 28.7994C-0.166379 29.6627 0.0490762 30.6023 0.694441 31.2514C1.15536 31.715 1.76515 31.9622 2.3932 31.9622C2.65392 31.9621 2.91795 31.9196 3.17555 31.8321C3.22732 31.8145 3.27746 31.7924 3.32535 31.7661L21.114 22.0028C22.75 21.1049 23.8517 19.5369 24.1366 17.701C24.2644 16.8769 24.216 16.0559 24.0059 15.2819L27.9506 15.3765C27.9581 15.3767 27.9656 15.3767 27.9731 15.3767C30.113 15.3767 31.8541 13.6482 31.8542 11.5234C31.8542 9.93296 30.8786 8.56446 29.4903 7.97686ZM17.9733 10.8672C17.9723 10.8664 17.9712 10.8654 17.9698 10.8642C17.9709 10.8652 17.972 10.8662 17.9732 10.8671C17.9732 10.8671 17.9732 10.8672 17.9733 10.8672ZM22.283 17.4135C22.0881 18.6695 21.3331 19.7429 20.2115 20.3585L16.5938 22.3441L12.027 17.8175C11.6591 17.4529 11.0653 17.4555 10.7007 17.8234C10.336 18.1913 10.3386 18.7851 10.7065 19.1497L14.879 23.2853L8.39161 26.8459L7.30058 25.7656C6.93251 25.4013 6.33866 25.4041 5.97427 25.7722C5.60983 26.1403 5.61283 26.7341 5.98084 27.0985L6.67641 27.7872L2.51118 30.0733C2.2599 30.1305 2.08927 29.9941 2.0245 29.9289C1.96322 29.8674 1.83568 29.7064 1.8872 29.4745L6.32809 21.5787L8.69472 23.9259C8.8776 24.1073 9.11638 24.1979 9.35515 24.1979C9.59643 24.1979 9.83771 24.1053 10.021 23.9204C10.3858 23.5526 10.3833 22.9589 10.0155 22.5941L7.28189 19.8829L11.6088 12.1897L17.8165 18.3423C17.9995 18.5236 18.2381 18.6141 18.4768 18.6141C18.7181 18.6141 18.9596 18.5214 19.1429 18.3364C19.5075 17.9685 19.5049 17.3747 19.137 17.0101L12.8034 10.7328C13.3313 10.3265 13.958 10.0489 14.6395 9.93334C15.8464 9.72864 17.0563 10.0653 17.9621 10.8575C18.1813 11.0681 21.0535 13.9087 21.2598 14.1156C22.0981 14.9999 22.4711 16.2014 22.283 17.4135ZM27.9832 13.5011L23.0879 13.3838C22.9424 13.1862 22.7839 12.9961 22.6117 12.8153C22.5901 12.7927 19.3242 9.55758 19.213 9.45966L19.2131 9.45973C19.0419 9.30886 18.8631 9.16924 18.6781 9.04088L18.64 4.2618C18.6419 3.17289 19.5408 2.28763 20.6455 2.28763C21.7479 2.28763 22.6475 3.1722 22.6507 4.25942C22.6518 4.63744 22.8797 4.97781 23.2288 5.1228C23.5779 5.2678 23.98 5.18908 24.2485 4.92298L26.7013 2.49345C27.4849 1.71723 28.7599 1.71723 29.5436 2.49345C29.9181 2.86434 30.1243 3.35984 30.1243 3.88866C30.1243 4.41748 29.9181 4.91298 29.5436 5.28386L26.8604 7.94172C26.5903 8.20926 26.5084 8.61329 26.6531 8.96486C26.7978 9.31642 27.1403 9.54582 27.5204 9.54582H27.9731C29.0788 9.54582 29.9785 10.433 29.9785 11.5234C29.9784 12.6106 29.0844 13.4957 27.9832 13.5011Z" fill="#96C93D"/>
</g>
<defs>
<clipPath id="clip0">
<rect width="32" height="32" fill="white"/>
</clipPath>
</defs>
</svg>