<svg width="32" height="32" viewBox="0 0 32 32" fill="none" xmlns="http://www.w3.org/2000/svg" id='icon5'>
<g clip-path="url(#clip0)">
<path d="M21 3.50094H26.0668C26.0587 3.57744 26.0543 3.65516 26.0543 3.734C26.0543 3.87284 26.0672 4.00879 26.0916 4.14075H15.4079V3.50094H19.26H21ZM19.26 2.31369H15.3829C15.2464 1.53206 14.5633 0.936062 13.743 0.936062C13.5476 0.936062 13.36 0.970167 13.1858 1.03236C12.9707 0.361978 12.3418 -0.125 11.6004 -0.125C11.1925 -0.125 10.8187 0.0227083 10.5291 0.266799C10.2396 0.0227044 9.86569 -0.125 9.45783 -0.125C8.71643 -0.125 8.08756 0.361992 7.87252 1.03243C7.69823 0.970234 7.51067 0.936125 7.31533 0.936125C6.39717 0.936125 5.65039 1.68283 5.65039 2.601V5.04075C5.65039 5.95885 6.39717 6.70563 7.31533 6.70563C7.5107 6.70563 7.69826 6.67152 7.87252 6.60933C8.08756 7.27982 8.71645 7.76675 9.45789 7.76675C9.86575 7.76675 10.2396 7.61905 10.5291 7.37496C10.8187 7.61905 11.1925 7.76675 11.6005 7.76675C12.3419 7.76675 12.9708 7.27976 13.1858 6.60932C13.3601 6.67152 13.5477 6.70563 13.743 6.70563C14.5633 6.70563 15.2464 6.10968 15.383 5.328H26.7262C27.1286 5.72189 27.6792 5.96575 28.286 5.96575C29.5167 5.96575 30.5177 4.96472 30.5177 3.73406C30.5177 2.50341 29.5167 1.50231 28.286 1.50231C27.5943 1.50231 26.9759 1.81898 26.5666 2.31369H21H19.26ZM7.79295 5.04075C7.79295 5.30401 7.57856 5.51837 7.31527 5.51837C7.05197 5.51837 6.83758 5.30401 6.83758 5.04075V2.601C6.83758 2.33774 7.05197 2.12337 7.31527 2.12337C7.57856 2.12337 7.79295 2.33774 7.79295 2.601V5.04075ZM9.93552 6.10181C9.93552 6.36511 9.72115 6.5795 9.45789 6.5795C9.19461 6.5795 8.9802 6.36509 8.9802 6.10181V1.53988C8.9802 1.2766 9.19461 1.06219 9.45789 1.06219C9.72115 1.06219 9.93552 1.27658 9.93552 1.53988V6.10181ZM12.0781 6.10181C12.0781 6.36509 11.8637 6.5795 11.6004 6.5795C11.3371 6.5795 11.1227 6.36509 11.1227 6.10181V1.53988C11.1227 1.2766 11.3371 1.06219 11.6004 1.06219C11.8637 1.06219 12.0781 1.2766 12.0781 1.53988V6.10181ZM14.2206 5.04075C14.2206 5.30401 14.0062 5.51837 13.743 5.51837C13.4797 5.51837 13.2653 5.30401 13.2653 5.04075V2.601C13.2653 2.33774 13.4797 2.12337 13.743 2.12337C14.0062 2.12337 14.2206 2.33774 14.2206 2.601V5.04075ZM28.286 4.7785C27.7102 4.7785 27.2416 4.30984 27.2416 3.73406C27.2416 3.15829 27.7102 2.68963 28.286 2.68963C28.8618 2.68963 29.3305 3.15829 29.3305 3.73406C29.3305 4.30984 28.8618 4.7785 28.286 4.7785Z" fill="#96C93D" stroke="#96C93D" stroke-width="0.25"/>
<mask id="path-2-outside-1" maskUnits="userSpaceOnUse" x="0.607422" y="8.64502" width="28" height="24" fill="black">
<rect fill="white" x="0.607422" y="8.64502" width="28" height="24"/>
<path d="M27.5576 26.9726L25.9176 26.0258V24.1298C25.9176 23.6409 25.6545 23.1853 25.2311 22.9408L23.8076 22.119C23.726 22.0719 23.6405 22.0341 23.5528 22.0051C23.6018 21.6227 23.6142 21.3739 23.6167 21.3052C23.7672 19.6901 23.4575 18.2611 22.6961 17.0581C22.0638 16.0588 21.2706 15.4745 20.854 15.2151C20.8062 15.1853 20.7777 15.1353 20.7777 15.0813V13.6195C21.2356 13.5371 21.5844 13.1366 21.5844 12.6553V10.6255C21.5844 10.0849 21.1446 9.64502 20.6039 9.64502H4.65721C4.11652 9.64502 3.67671 10.0849 3.67671 10.6255V12.6553C3.67671 13.1365 4.02552 13.5371 4.48346 13.6195V15.0813C4.48346 15.1353 4.4549 15.1853 4.40702 15.2151C3.99052 15.4745 3.19734 16.0588 2.56496 17.0581C1.80352 18.2612 1.49384 19.6902 1.6444 21.3054C1.64952 21.4386 1.98281 23.3462 2.27769 24.5461C2.33944 24.7975 2.59319 24.9512 2.84462 24.8893C3.09594 24.8276 3.24956 24.5737 3.18781 24.3224C2.89869 23.1456 2.58096 21.27 2.58071 21.2625C2.5804 21.252 2.57977 21.2415 2.57884 21.231C2.55365 20.9657 2.54434 20.7131 2.5464 20.4707H22.7146C22.7168 20.7131 22.7074 20.9657 22.6822 21.231C22.6812 21.2415 22.6807 21.252 22.6803 21.2625C22.6802 21.2693 22.6706 21.5569 22.6018 22.0373C22.5448 22.0605 22.4889 22.0877 22.4347 22.119L21.0113 22.9408C20.5878 23.1853 20.3248 23.6408 20.3248 24.1298V26.025L18.6836 26.9725C18.2602 27.217 17.9971 27.6726 17.9971 28.1615V29.8051C17.9971 29.9088 18.0096 30.0107 18.0322 30.1096C17.59 30.4548 17.1194 30.773 16.6199 31.0627H8.64121C6.32277 29.7177 4.29177 26.921 3.23596 24.4097C3.13565 24.1711 2.86071 24.0591 2.62234 24.1594C2.38371 24.2597 2.27159 24.5344 2.3719 24.773C3.5259 27.5178 5.72809 30.4877 8.2849 31.9389C8.35546 31.979 8.43515 32 8.51621 32H16.7448C16.8258 32 16.9056 31.9789 16.9761 31.9389C17.5459 31.6155 18.0652 31.2656 18.5396 30.898C18.5853 30.9328 18.6332 30.9651 18.6836 30.9941L20.107 31.816C20.3188 31.9382 20.556 31.9993 20.7935 31.9993C21.0308 31.9993 21.2682 31.9382 21.4799 31.816L23.1206 30.8687L24.7612 31.816C24.973 31.9382 25.2103 31.9993 25.4476 31.9993C25.6851 31.9993 25.9224 31.9382 26.1341 31.816L27.5576 30.9941C27.981 30.7497 28.244 30.2941 28.244 29.8051V28.1615C28.2441 27.6726 27.981 27.2171 27.5576 26.9726ZM14.7913 10.5822H20.6039C20.6278 10.5822 20.6472 10.6016 20.6472 10.6255V12.6553C20.6472 12.6791 20.6278 12.6986 20.6039 12.6986H14.7913V10.5822ZM7.83246 10.5822H13.854V15.7351C13.854 16.118 13.5425 16.4295 13.1596 16.4295C12.7767 16.4295 12.4652 16.118 12.4652 15.7351V15.7241C12.4652 14.8297 11.7376 14.102 10.8432 14.102C9.94878 14.102 9.22115 14.8296 9.22115 15.7241V17.1566C9.22115 17.5395 8.90965 17.851 8.52677 17.851C8.14396 17.851 7.83246 17.5395 7.83246 17.1566V10.5822ZM4.61396 10.6255C4.61396 10.6016 4.6334 10.5822 4.65721 10.5822H6.89521V12.6985H4.65721C4.63334 12.6985 4.61396 12.6791 4.61396 12.6552V10.6255ZM2.62234 19.5336C2.95171 17.4647 4.25902 16.4115 4.90246 16.0107C5.22702 15.8086 5.42071 15.4612 5.42071 15.0813V13.6358H6.89521V17.1566C6.89521 18.0562 7.62715 18.7881 8.52677 18.7881C9.4264 18.7881 10.1584 18.0562 10.1584 17.1566V15.724C10.1584 15.3464 10.4656 15.0392 10.8432 15.0392C11.2208 15.0392 11.528 15.3464 11.528 15.724V15.7351C11.528 16.6347 12.26 17.3666 13.1596 17.3666C14.0593 17.3666 14.7913 16.6347 14.7913 15.7351V13.6357H19.8404V15.0813C19.8404 15.4612 20.0342 15.8086 20.3587 16.0107C21.0021 16.4114 22.3095 17.4647 22.6388 19.5336H2.62234ZM22.6513 30.0575L21.0113 31.0044C20.8769 31.082 20.71 31.082 20.5756 31.0044L19.1521 30.1826C19.0177 30.105 18.9343 29.9604 18.9343 29.8053V28.1616C18.9343 28.0065 19.0177 27.8618 19.1521 27.7843L20.7934 26.8367L21.723 27.3734L22.6513 27.9094V30.0575ZM21.262 26.025V24.1298C21.262 23.9746 21.3455 23.8301 21.4798 23.7525L22.9033 22.9307C23.0376 22.8531 23.2046 22.8531 23.339 22.9307L24.7625 23.7525C24.8969 23.8301 24.9803 23.9747 24.9803 24.1298V26.0243L23.1206 27.098L21.262 26.025ZM27.3068 29.8053C27.3068 29.9605 27.2233 30.105 27.089 30.1826L25.6656 31.0044C25.5312 31.0819 25.3642 31.082 25.2298 31.0044L23.5898 30.0575V27.9101L25.4483 26.8371L27.089 27.7843C27.2233 27.8619 27.3068 28.0065 27.3068 28.1617L27.3068 29.8053Z"/>
</mask>
<path d="M27.5576 26.9726L25.9176 26.0258V24.1298C25.9176 23.6409 25.6545 23.1853 25.2311 22.9408L23.8076 22.119C23.726 22.0719 23.6405 22.0341 23.5528 22.0051C23.6018 21.6227 23.6142 21.3739 23.6167 21.3052C23.7672 19.6901 23.4575 18.2611 22.6961 17.0581C22.0638 16.0588 21.2706 15.4745 20.854 15.2151C20.8062 15.1853 20.7777 15.1353 20.7777 15.0813V13.6195C21.2356 13.5371 21.5844 13.1366 21.5844 12.6553V10.6255C21.5844 10.0849 21.1446 9.64502 20.6039 9.64502H4.65721C4.11652 9.64502 3.67671 10.0849 3.67671 10.6255V12.6553C3.67671 13.1365 4.02552 13.5371 4.48346 13.6195V15.0813C4.48346 15.1353 4.4549 15.1853 4.40702 15.2151C3.99052 15.4745 3.19734 16.0588 2.56496 17.0581C1.80352 18.2612 1.49384 19.6902 1.6444 21.3054C1.64952 21.4386 1.98281 23.3462 2.27769 24.5461C2.33944 24.7975 2.59319 24.9512 2.84462 24.8893C3.09594 24.8276 3.24956 24.5737 3.18781 24.3224C2.89869 23.1456 2.58096 21.27 2.58071 21.2625C2.5804 21.252 2.57977 21.2415 2.57884 21.231C2.55365 20.9657 2.54434 20.7131 2.5464 20.4707H22.7146C22.7168 20.7131 22.7074 20.9657 22.6822 21.231C22.6812 21.2415 22.6807 21.252 22.6803 21.2625C22.6802 21.2693 22.6706 21.5569 22.6018 22.0373C22.5448 22.0605 22.4889 22.0877 22.4347 22.119L21.0113 22.9408C20.5878 23.1853 20.3248 23.6408 20.3248 24.1298V26.025L18.6836 26.9725C18.2602 27.217 17.9971 27.6726 17.9971 28.1615V29.8051C17.9971 29.9088 18.0096 30.0107 18.0322 30.1096C17.59 30.4548 17.1194 30.773 16.6199 31.0627H8.64121C6.32277 29.7177 4.29177 26.921 3.23596 24.4097C3.13565 24.1711 2.86071 24.0591 2.62234 24.1594C2.38371 24.2597 2.27159 24.5344 2.3719 24.773C3.5259 27.5178 5.72809 30.4877 8.2849 31.9389C8.35546 31.979 8.43515 32 8.51621 32H16.7448C16.8258 32 16.9056 31.9789 16.9761 31.9389C17.5459 31.6155 18.0652 31.2656 18.5396 30.898C18.5853 30.9328 18.6332 30.9651 18.6836 30.9941L20.107 31.816C20.3188 31.9382 20.556 31.9993 20.7935 31.9993C21.0308 31.9993 21.2682 31.9382 21.4799 31.816L23.1206 30.8687L24.7612 31.816C24.973 31.9382 25.2103 31.9993 25.4476 31.9993C25.6851 31.9993 25.9224 31.9382 26.1341 31.816L27.5576 30.9941C27.981 30.7497 28.244 30.2941 28.244 29.8051V28.1615C28.2441 27.6726 27.981 27.2171 27.5576 26.9726ZM14.7913 10.5822H20.6039C20.6278 10.5822 20.6472 10.6016 20.6472 10.6255V12.6553C20.6472 12.6791 20.6278 12.6986 20.6039 12.6986H14.7913V10.5822ZM7.83246 10.5822H13.854V15.7351C13.854 16.118 13.5425 16.4295 13.1596 16.4295C12.7767 16.4295 12.4652 16.118 12.4652 15.7351V15.7241C12.4652 14.8297 11.7376 14.102 10.8432 14.102C9.94878 14.102 9.22115 14.8296 9.22115 15.7241V17.1566C9.22115 17.5395 8.90965 17.851 8.52677 17.851C8.14396 17.851 7.83246 17.5395 7.83246 17.1566V10.5822ZM4.61396 10.6255C4.61396 10.6016 4.6334 10.5822 4.65721 10.5822H6.89521V12.6985H4.65721C4.63334 12.6985 4.61396 12.6791 4.61396 12.6552V10.6255ZM2.62234 19.5336C2.95171 17.4647 4.25902 16.4115 4.90246 16.0107C5.22702 15.8086 5.42071 15.4612 5.42071 15.0813V13.6358H6.89521V17.1566C6.89521 18.0562 7.62715 18.7881 8.52677 18.7881C9.4264 18.7881 10.1584 18.0562 10.1584 17.1566V15.724C10.1584 15.3464 10.4656 15.0392 10.8432 15.0392C11.2208 15.0392 11.528 15.3464 11.528 15.724V15.7351C11.528 16.6347 12.26 17.3666 13.1596 17.3666C14.0593 17.3666 14.7913 16.6347 14.7913 15.7351V13.6357H19.8404V15.0813C19.8404 15.4612 20.0342 15.8086 20.3587 16.0107C21.0021 16.4114 22.3095 17.4647 22.6388 19.5336H2.62234ZM22.6513 30.0575L21.0113 31.0044C20.8769 31.082 20.71 31.082 20.5756 31.0044L19.1521 30.1826C19.0177 30.105 18.9343 29.9604 18.9343 29.8053V28.1616C18.9343 28.0065 19.0177 27.8618 19.1521 27.7843L20.7934 26.8367L21.723 27.3734L22.6513 27.9094V30.0575ZM21.262 26.025V24.1298C21.262 23.9746 21.3455 23.8301 21.4798 23.7525L22.9033 22.9307C23.0376 22.8531 23.2046 22.8531 23.339 22.9307L24.7625 23.7525C24.8969 23.8301 24.9803 23.9747 24.9803 24.1298V26.0243L23.1206 27.098L21.262 26.025ZM27.3068 29.8053C27.3068 29.9605 27.2233 30.105 27.089 30.1826L25.6656 31.0044C25.5312 31.0819 25.3642 31.082 25.2298 31.0044L23.5898 30.0575V27.9101L25.4483 26.8371L27.089 27.7843C27.2233 27.8619 27.3068 28.0065 27.3068 28.1617L27.3068 29.8053Z" fill="#96C93D"/>
<path d="M27.5576 26.9726L25.9176 26.0258V24.1298C25.9176 23.6409 25.6545 23.1853 25.2311 22.9408L23.8076 22.119C23.726 22.0719 23.6405 22.0341 23.5528 22.0051C23.6018 21.6227 23.6142 21.3739 23.6167 21.3052C23.7672 19.6901 23.4575 18.2611 22.6961 17.0581C22.0638 16.0588 21.2706 15.4745 20.854 15.2151C20.8062 15.1853 20.7777 15.1353 20.7777 15.0813V13.6195C21.2356 13.5371 21.5844 13.1366 21.5844 12.6553V10.6255C21.5844 10.0849 21.1446 9.64502 20.6039 9.64502H4.65721C4.11652 9.64502 3.67671 10.0849 3.67671 10.6255V12.6553C3.67671 13.1365 4.02552 13.5371 4.48346 13.6195V15.0813C4.48346 15.1353 4.4549 15.1853 4.40702 15.2151C3.99052 15.4745 3.19734 16.0588 2.56496 17.0581C1.80352 18.2612 1.49384 19.6902 1.6444 21.3054C1.64952 21.4386 1.98281 23.3462 2.27769 24.5461C2.33944 24.7975 2.59319 24.9512 2.84462 24.8893C3.09594 24.8276 3.24956 24.5737 3.18781 24.3224C2.89869 23.1456 2.58096 21.27 2.58071 21.2625C2.5804 21.252 2.57977 21.2415 2.57884 21.231C2.55365 20.9657 2.54434 20.7131 2.5464 20.4707H22.7146C22.7168 20.7131 22.7074 20.9657 22.6822 21.231C22.6812 21.2415 22.6807 21.252 22.6803 21.2625C22.6802 21.2693 22.6706 21.5569 22.6018 22.0373C22.5448 22.0605 22.4889 22.0877 22.4347 22.119L21.0113 22.9408C20.5878 23.1853 20.3248 23.6408 20.3248 24.1298V26.025L18.6836 26.9725C18.2602 27.217 17.9971 27.6726 17.9971 28.1615V29.8051C17.9971 29.9088 18.0096 30.0107 18.0322 30.1096C17.59 30.4548 17.1194 30.773 16.6199 31.0627H8.64121C6.32277 29.7177 4.29177 26.921 3.23596 24.4097C3.13565 24.1711 2.86071 24.0591 2.62234 24.1594C2.38371 24.2597 2.27159 24.5344 2.3719 24.773C3.5259 27.5178 5.72809 30.4877 8.2849 31.9389C8.35546 31.979 8.43515 32 8.51621 32H16.7448C16.8258 32 16.9056 31.9789 16.9761 31.9389C17.5459 31.6155 18.0652 31.2656 18.5396 30.898C18.5853 30.9328 18.6332 30.9651 18.6836 30.9941L20.107 31.816C20.3188 31.9382 20.556 31.9993 20.7935 31.9993C21.0308 31.9993 21.2682 31.9382 21.4799 31.816L23.1206 30.8687L24.7612 31.816C24.973 31.9382 25.2103 31.9993 25.4476 31.9993C25.6851 31.9993 25.9224 31.9382 26.1341 31.816L27.5576 30.9941C27.981 30.7497 28.244 30.2941 28.244 29.8051V28.1615C28.2441 27.6726 27.981 27.2171 27.5576 26.9726ZM14.7913 10.5822H20.6039C20.6278 10.5822 20.6472 10.6016 20.6472 10.6255V12.6553C20.6472 12.6791 20.6278 12.6986 20.6039 12.6986H14.7913V10.5822ZM7.83246 10.5822H13.854V15.7351C13.854 16.118 13.5425 16.4295 13.1596 16.4295C12.7767 16.4295 12.4652 16.118 12.4652 15.7351V15.7241C12.4652 14.8297 11.7376 14.102 10.8432 14.102C9.94878 14.102 9.22115 14.8296 9.22115 15.7241V17.1566C9.22115 17.5395 8.90965 17.851 8.52677 17.851C8.14396 17.851 7.83246 17.5395 7.83246 17.1566V10.5822ZM4.61396 10.6255C4.61396 10.6016 4.6334 10.5822 4.65721 10.5822H6.89521V12.6985H4.65721C4.63334 12.6985 4.61396 12.6791 4.61396 12.6552V10.6255ZM2.62234 19.5336C2.95171 17.4647 4.25902 16.4115 4.90246 16.0107C5.22702 15.8086 5.42071 15.4612 5.42071 15.0813V13.6358H6.89521V17.1566C6.89521 18.0562 7.62715 18.7881 8.52677 18.7881C9.4264 18.7881 10.1584 18.0562 10.1584 17.1566V15.724C10.1584 15.3464 10.4656 15.0392 10.8432 15.0392C11.2208 15.0392 11.528 15.3464 11.528 15.724V15.7351C11.528 16.6347 12.26 17.3666 13.1596 17.3666C14.0593 17.3666 14.7913 16.6347 14.7913 15.7351V13.6357H19.8404V15.0813C19.8404 15.4612 20.0342 15.8086 20.3587 16.0107C21.0021 16.4114 22.3095 17.4647 22.6388 19.5336H2.62234ZM22.6513 30.0575L21.0113 31.0044C20.8769 31.082 20.71 31.082 20.5756 31.0044L19.1521 30.1826C19.0177 30.105 18.9343 29.9604 18.9343 29.8053V28.1616C18.9343 28.0065 19.0177 27.8618 19.1521 27.7843L20.7934 26.8367L21.723 27.3734L22.6513 27.9094V30.0575ZM21.262 26.025V24.1298C21.262 23.9746 21.3455 23.8301 21.4798 23.7525L22.9033 22.9307C23.0376 22.8531 23.2046 22.8531 23.339 22.9307L24.7625 23.7525C24.8969 23.8301 24.9803 23.9747 24.9803 24.1298V26.0243L23.1206 27.098L21.262 26.025ZM27.3068 29.8053C27.3068 29.9605 27.2233 30.105 27.089 30.1826L25.6656 31.0044C25.5312 31.0819 25.3642 31.082 25.2298 31.0044L23.5898 30.0575V27.9101L25.4483 26.8371L27.089 27.7843C27.2233 27.8619 27.3068 28.0065 27.3068 28.1617L27.3068 29.8053Z" stroke="#96C93D" stroke-width="0.5" mask="url(#path-2-outside-1)"/>
</g>
<defs>
<clipPath id="clip0">
<rect width="32" height="32" fill="white"/>
</clipPath>
</defs>
</svg>