<svg width="40" height="40" viewBox="0 0 40 40" fill="none" xmlns="http://www.w3.org/2000/svg" id='icon6'>
<path d="M3.0918 24.7583H36.4251V35.5916C36.4251 35.8126 36.3373 36.0246 36.1811 36.1809C36.0248 36.3372 35.8128 36.425 35.5918 36.425H3.92513C3.70412 36.425 3.49216 36.3372 3.33587 36.1809C3.17959 36.0246 3.0918 35.8126 3.0918 35.5916V24.7583V24.7583Z" stroke="#96C93D" stroke-width="1.5" stroke-miterlimit="10"/>
<path d="M36.4251 28.925H3.0918V32.2584H36.4251V28.925Z" stroke="#96C93D" stroke-width="1.5" stroke-miterlimit="10"/>
<path d="M35.5911 19.7583H33.0911C32.6309 19.7583 32.2578 20.1314 32.2578 20.5916V23.925C32.2578 24.3852 32.6309 24.7583 33.0911 24.7583H35.5911C36.0514 24.7583 36.4245 24.3852 36.4245 23.925V20.5916C36.4245 20.1314 36.0514 19.7583 35.5911 19.7583Z" stroke="#96C93D" stroke-width="1.5" stroke-miterlimit="10"/>
<path d="M6.66732 19.7583H4.16732C3.70708 19.7583 3.33398 20.1314 3.33398 20.5916V23.925C3.33398 24.3852 3.70708 24.7583 4.16732 24.7583H6.66732C7.12755 24.7583 7.50065 24.3852 7.50065 23.925V20.5916C7.50065 20.1314 7.12755 19.7583 6.66732 19.7583Z" stroke="#96C93D" stroke-width="2" stroke-miterlimit="10"/>
<path d="M22.7827 24.7583C22.4659 23.6603 22.3696 22.5104 22.4994 21.375C22.6994 20.1917 23.8994 18.7583 25.441 17.5417C28.991 14.75 29.5077 10.2667 33.216 12.475C35.8494 14.0417 34.5494 16.3 34.166 17.5417C33.9511 18.2598 33.8942 19.0161 33.9994 19.7583" stroke="#96C93D" stroke-width="1.5" stroke-miterlimit="10"/>
<path d="M34.166 12.6583C34.166 12.6583 34.866 10.775 35.7827 10.2666C36.6993 9.7583 38.5493 10.0833 38.5493 10.0833C38.3532 10.9217 37.8734 11.6665 37.191 12.1916C36.2225 12.5419 35.1951 12.7004 34.166 12.6583V12.6583Z" stroke="#96C93D" stroke-width="1.5" stroke-miterlimit="10"/>
<path d="M12.1164 10.7417C12.1164 10.7417 10.1831 10.1833 9.6164 9.31665C9.04973 8.44998 9.22473 6.56665 9.22473 6.56665C10.0699 6.70211 10.8432 7.12261 11.4164 7.75832C11.8422 8.69754 12.08 9.71105 12.1164 10.7417Z" stroke="#96C93D" stroke-width="1.5" stroke-miterlimit="10"/>
<path d="M12.1161 24.0416C12.0851 23.7757 12.1114 23.5062 12.1933 23.2513C12.2751 22.9964 12.4106 22.762 12.5906 22.5639C12.7706 22.3657 12.991 22.2084 13.2369 22.1025C13.4828 21.9966 13.7485 21.9446 14.0161 21.95C16.1078 21.8833 16.1078 24.1083 16.1078 24.1083" stroke="#96C93D" stroke-width="1.5" stroke-miterlimit="10"/>
<path d="M17.8341 24.6833C17.8016 24.4182 17.8267 24.1493 17.9076 23.8948C17.9885 23.6403 18.1233 23.4062 18.3028 23.2085C18.4824 23.0108 18.7024 22.8541 18.9479 22.7491C19.1935 22.6441 19.4588 22.5932 19.7257 22.6C21.8174 22.525 21.8174 24.7583 21.8174 24.7583" stroke="#96C93D" stroke-width="1.5" stroke-miterlimit="10"/>
<path d="M15.291 22.075C15.4625 21.7193 15.7311 21.4194 16.0659 21.21C16.4006 21.0006 16.7878 20.8902 17.1827 20.8916C17.605 20.8999 18.0184 21.0151 18.3841 21.2264C18.7499 21.4377 19.0562 21.7382 19.2743 22.1" stroke="#96C93D" stroke-width="1.5" stroke-miterlimit="10"/>
<path d="M4.34222 19.7584C4.329 18.9281 4.62617 18.1227 5.17555 17.5C6.00889 16.75 7.16722 16.7667 7.83389 16.4084C8.50055 16.05 9.50055 14.5667 10.8756 14.7417C11.7311 14.8734 12.539 15.221 13.2229 15.7518C13.9068 16.2825 14.444 16.9789 14.7839 17.775C15.4172 19.5834 14.9006 22.4917 14.9006 22.4917" stroke="#96C93D" stroke-width="1.5" stroke-miterlimit="10"/>
<path d="M7.83385 16.4084C7.6236 15.8215 7.34383 15.262 7.00052 14.7417C6.54915 14.3277 6.04131 13.9797 5.49219 13.7084" stroke="#96C93D" stroke-width="1.5" stroke-miterlimit="10" stroke-linecap="round"/>
<path d="M14.5254 17.2334C14.5254 17.2334 16.6671 15.4834 18.6254 15.7417C18.6254 15.7417 22.4504 15.9751 23.5004 19.4584" stroke="#96C93D" stroke-width="1.5" stroke-miterlimit="10"/>
<path d="M33.2422 12.5C33.2422 12.5 33.7839 11.05 33.9839 10.425C34.1499 9.73662 34.2697 9.03783 34.3422 8.33337" stroke="#96C93D" stroke-width="1.5" stroke-miterlimit="10" stroke-linecap="round"/>
<path d="M9.44922 14.425C9.44922 14.425 9.71589 11.3417 12.1242 11.0084C13.4492 10.8167 15.4992 10.85 16.2909 11.8417C16.581 12.2026 16.7808 12.6276 16.8735 13.0812C16.9663 13.5349 16.9494 14.0042 16.8242 14.45C16.5938 15.0669 16.3295 15.6706 16.0325 16.2584" stroke="#96C93D" stroke-width="1.5" stroke-miterlimit="10" stroke-linecap="round"/>
<path d="M11.2578 6.95005C11.6984 6.14647 12.2116 5.38495 12.7911 4.67505C12.7911 4.67505 14.3495 6.12505 14.2495 7.70838C14.1495 9.29172 12.5828 11.0417 12.5828 11.0417" stroke="#96C93D" stroke-width="1.5" stroke-miterlimit="10"/>
<path d="M19.8424 15.8334C19.4162 15.2233 19.1315 14.5258 19.0091 13.7917C18.993 13.2339 19.1795 12.6892 19.5341 12.2584C19.5341 12.2584 17.9008 11.1667 19.0174 10C20.2424 8.67503 21.7674 10.2084 21.7674 10.2084C21.7674 10.2084 23.2508 9.1667 25.6508 11.4834C27.2508 13.05 26.7841 16.3 26.7841 16.3" stroke="#96C93D" stroke-width="1.5" stroke-miterlimit="10"/>
<path d="M5.21706 27.3667C5.53002 27.3667 5.78372 27.113 5.78372 26.8001C5.78372 26.4871 5.53002 26.2334 5.21706 26.2334C4.9041 26.2334 4.65039 26.4871 4.65039 26.8001C4.65039 27.113 4.9041 27.3667 5.21706 27.3667Z" fill="#96C93D"/>
<path d="M5.21706 31.1584C5.53002 31.1584 5.78372 30.9047 5.78372 30.5917C5.78372 30.2787 5.53002 30.025 5.21706 30.025C4.9041 30.025 4.65039 30.2787 4.65039 30.5917C4.65039 30.9047 4.9041 31.1584 5.21706 31.1584Z" fill="#96C93D"/>
<path d="M5.21706 34.6501C5.53002 34.6501 5.78372 34.3963 5.78372 34.0834C5.78372 33.7704 5.53002 33.5167 5.21706 33.5167C4.9041 33.5167 4.65039 33.7704 4.65039 34.0834C4.65039 34.3963 4.9041 34.6501 5.21706 34.6501Z" fill="#96C93D"/>
<path d="M33.9827 27.3667C34.2956 27.3667 34.5494 27.113 34.5494 26.8001C34.5494 26.4871 34.2956 26.2334 33.9827 26.2334C33.6697 26.2334 33.416 26.4871 33.416 26.8001C33.416 27.113 33.6697 27.3667 33.9827 27.3667Z" fill="#96C93D"/>
<path d="M33.9827 31.1584C34.2956 31.1584 34.5494 30.9047 34.5494 30.5917C34.5494 30.2787 34.2956 30.025 33.9827 30.025C33.6697 30.025 33.416 30.2787 33.416 30.5917C33.416 30.9047 33.6697 31.1584 33.9827 31.1584Z" fill="#96C93D"/>
<path d="M33.9827 34.6501C34.2956 34.6501 34.5494 34.3963 34.5494 34.0834C34.5494 33.7704 34.2956 33.5167 33.9827 33.5167C33.6697 33.5167 33.416 33.7704 33.416 34.0834C33.416 34.3963 33.6697 34.6501 33.9827 34.6501Z" fill="#96C93D"/>
</svg>