<svg width="32" height="32" viewBox="0 0 32 32" fill="none" xmlns="http://www.w3.org/2000/svg" id='icon9'>
<g clip-path="url(#clip0)">
<path d="M30.806 18.5544C30.806 14.5726 27.6335 11.2368 23.4151 10.434C23.2665 4.65529 18.5194 0 12.7054 0H11.9107C6.00329 0 1.19727 4.80603 1.19727 10.7134V13.3063C1.19727 15.0627 2.62628 16.4917 4.38274 16.4917H7.79993C7.62666 18.2127 7.12707 21.2782 5.69073 25.1488C4.98684 27.0456 5.61352 29.2054 7.21467 30.4009C8.56271 31.4075 10.3716 31.9618 12.308 31.9618C13.8899 31.9618 15.4011 31.5855 16.6372 30.8942C17.8083 31.6078 19.3331 32 20.9578 32C22.6584 32 24.2506 31.5712 25.4412 30.7928C26.9391 29.8133 27.5158 28.0201 26.8434 26.4321C26.1265 24.7389 25.6641 23.8688 25.3586 23.3332H25.481C28.4172 23.3332 30.806 21.1895 30.806 18.5544ZM3.0745 13.3063V10.7134C3.0745 5.84114 7.0384 1.87723 11.9106 1.87723H12.7053C17.4223 1.87723 21.2878 5.59253 21.5294 10.2505C21.5039 10.2503 21.4786 10.2496 21.4531 10.2496H20.4622C16.9097 10.2496 13.8136 12.0175 12.2308 14.6144H4.38274C3.66138 14.6145 3.0745 14.0276 3.0745 13.3063ZM8.33782 28.8967C7.39939 28.1959 7.03458 26.9233 7.4507 25.8019C9.00518 21.6128 9.51722 18.2895 9.68542 16.4917H11.4015C11.2109 17.1515 11.1094 17.8427 11.1094 18.5544C11.1094 21.1894 13.4981 23.3331 16.4345 23.3331H16.5568C16.2513 23.8687 15.7889 24.7388 15.072 26.432C14.6374 27.4587 14.7253 28.5707 15.2461 29.4936C14.3824 29.8777 13.371 30.0845 12.308 30.0845C10.7959 30.0846 9.34877 29.6516 8.33782 28.8967ZM24.4139 29.2216C23.538 29.7943 22.2783 30.1228 20.9578 30.1228C19.6372 30.1228 18.3775 29.7943 17.5016 29.2216C16.7652 28.7401 16.4836 27.9132 16.8008 27.164C17.6188 25.2318 18.0748 24.453 18.3473 23.9877C18.6671 23.4415 18.8097 23.1689 18.8387 22.4315C18.8389 22.4277 18.8384 22.4234 18.8382 22.4194C18.8385 22.411 18.8395 22.403 18.8395 22.3946C18.8395 21.8762 18.4192 21.456 17.9009 21.456C17.5876 21.456 17.3327 21.2011 17.3327 20.8878C17.3327 20.5745 17.5876 20.3196 17.9009 20.3196C18.4192 20.3196 18.8395 19.8994 18.8395 19.381C18.8395 18.8626 18.4192 18.4424 17.9009 18.4424C16.5525 18.4424 15.4555 19.5394 15.4555 20.8878C15.4555 21.0447 15.4709 21.1979 15.4993 21.3466C14.0513 21.0026 12.9867 19.8815 12.9867 18.5544C12.9867 15.0102 16.3402 12.1269 20.4623 12.1269H21.4532C21.7679 12.1269 22.078 12.1439 22.3826 12.1765C22.3837 12.1766 22.3849 12.1767 22.386 12.1768C26.0695 12.5728 28.9288 15.2819 28.9288 18.5544C28.9288 19.8815 27.8642 21.0025 26.4162 21.3466C26.4445 21.1978 26.46 21.0446 26.46 20.8878C26.46 19.5394 25.363 18.4424 24.0146 18.4424C23.4962 18.4424 23.076 18.8626 23.076 19.381C23.076 19.8994 23.4962 20.3196 24.0146 20.3196C24.3279 20.3196 24.5828 20.5745 24.5828 20.8878C24.5828 21.2011 24.3279 21.456 24.0146 21.456C23.4962 21.456 23.076 21.8762 23.076 22.3946C23.076 22.403 23.077 22.411 23.0772 22.4194C23.077 22.4234 23.0765 22.4277 23.0767 22.4315C23.1058 23.1689 23.2484 23.4415 23.5682 23.9877C23.8406 24.453 24.2967 25.2318 25.1148 27.164C25.4319 27.9132 25.1503 28.7401 24.4139 29.2216Z" fill="#96C93D"/>
</g>
<defs>
<clipPath id="clip0">
<rect width="32" height="32" fill="white"/>
</clipPath>
</defs>
</svg>