<?xml version="1.0"?>
<svg viewBox="0 0 590 590" xmlns="http://www.w3.org/2000/svg" xmlns:svg="http://www.w3.org/2000/svg" id='fish'>
 <g class="layer">
  <title>Layer 1</title>
  <path d="m545.646,275.469c-42.643,-76.335 -112.746,-123.013 -194.913,-131.663c-41.195,-52.03 -170.456,-65.211 -176.035,-65.754c-3.635,-0.375 -7.292,1.208 -9.521,4.167a10.632,10.632 0 0 0 -1.458,10.281c12.673,32.896 25.656,70.313 29.092,85.621c-23.473,10.741 -43.99,22.163 -57.217,31.681c-28.688,-45.896 -87.25,-46.469 -89.927,-46.469a10.66,10.66 0 0 0 -10.667,10.667c0,61.802 21.542,92.823 35.948,106.667c-14.406,13.843 -35.948,44.864 -35.948,106.666a10.66,10.66 0 0 0 10.667,10.667c2.677,0 61.24,-0.573 89.927,-46.469c17.573,12.646 47.957,28.637 81.159,41.931c-7.337,11.867 -11.086,30.742 -11.086,57.871a10.66,10.66 0 0 0 10.667,10.667c3.172,0 75.708,-0.629 111.832,-43.003c91.87,-1.775 170.978,-49.891 217.48,-133.133a10.67,10.67 0 0 0 0,-10.395zm-355.74,-174.052c35.841,5.188 94.682,17.952 127.934,40.799c-30.66,1.198 -69.78,12.79 -105.243,27.336c-4.722,-18.75 -15.199,-48.043 -22.691,-68.135zm37.344,338.635c1.421,-29.671 8.267,-37.254 10.186,-38.806c20.786,7.296 41.846,13.094 60.969,16.004c-23.139,16.281 -54.682,21.348 -71.155,22.802zm8.948,-39.198l0.004,-0.029c0.029,0.01 0.059,0.018 0.087,0.029c-0.06,-0.008 -0.027,0.009 -0.091,0zm86.802,-2.854c-62.333,0 -164.25,-51.177 -183.125,-70.49a10.647,10.647 0 0 0 -7.625,-3.208c-0.646,0 -1.302,0.063 -1.948,0.177c-3.49,0.646 -6.438,3 -7.844,6.26c-14.396,33.385 -48.25,42.5 -65.844,44.99c3.333,-66.844 34.969,-84.708 36.594,-85.573c3.51,-1.802 5.677,-5.438 5.729,-9.385c0.052,-3.99 -2.188,-7.708 -5.719,-9.583c-1.427,-0.76 -33.25,-18.5 -36.604,-85.521c17.583,2.573 51.562,11.823 65.844,44.927a10.667,10.667 0 0 0 7.844,6.26c3.521,0.656 7.094,-0.49 9.573,-3.031c18.875,-19.313 120.792,-70.49 183.125,-70.49c84.219,0 157.167,42.677 201.042,117.333c-43.875,74.657 -116.823,117.334 -201.042,117.334z" fill="#96c93d" id="svg_1" stroke="#96C93D" stroke-miterlimit="10" stroke-width="2" transform="rotate(-0.133846 290.999 269.999)"/>
  <circle cx="418.999" cy="249.665" fill="#96c93d" id="svg_7" r="21.333" stroke="#96c93d" stroke-miterlimit="10" stroke-opacity="0" stroke-width="2"/>
 </g>
</svg>