<?xml version="1.0"?>
<svg viewBox="0 0 60 60" xmlns="http://www.w3.org/2000/svg" xmlns:svg="http://www.w3.org/2000/svg" id='milk'>
 <g class="layer">
  <title>Layer 1</title>
  <g fill="#000" fill-rule="nonzero" id="svg_1">
   <path d="m11,1.9l0,4.611l-10.737,11.713a0.924,0.924 0 0 0 -0.077,0.128a0.99,0.99 0 0 0 -0.113,0.187a0.914,0.914 0 0 0 -0.044,0.22a0.84,0.84 0 0 0 -0.029,0.141l0,40a1,1 0 0 0 1,1l31.95,0a1,1 0 0 0 0,-2l-8.95,0l0,-38l15,0l0,11.04a1,1 0 0 0 2,0l0,-12.04a0.84,0.84 0 0 0 -0.029,-0.141a0.914,0.914 0 0 0 -0.044,-0.22a0.99,0.99 0 0 0 -0.113,-0.187a0.924,0.924 0 0 0 -0.077,-0.128l-10.737,-11.713l0,-4.611a2,2 0 0 0 -2,-2l-15,0a2,2 0 0 0 -2,2zm-7.727,16l8.727,-9.52l8.727,9.52l-17.454,0zm18.727,40l-20,0l0,-38l20,0l0,38zm15.727,-40l-14.287,0l-9.167,-10l14.287,0l9.167,10zm-24.727,-16l15,0l0,4l-15,0l0,-4z" fill="#96c93d" id="svg_2" stroke="#96C93D" stroke-miterlimit="10" stroke-width="1.5"/>
   <path d="m18,37.161l0,-2.89a6.721,6.721 0 0 0 2.224,-8.82a1,1 0 0 0 -1.6,-0.258l-2.958,2.958a5.984,5.984 0 0 0 -7.327,0l-2.962,-2.958a1,1 0 0 0 -1.6,0.258a6.721,6.721 0 0 0 2.223,8.82l0,2.89a5.5,5.5 0 0 0 3.5,9.739l5,0a5.5,5.5 0 0 0 3.5,-9.739zm0.9,-9.412a4.469,4.469 0 0 1 -1,4.029a5.961,5.961 0 0 0 -0.874,-2.154l1.874,-1.875zm-13.8,-0.006l1.879,1.879a5.957,5.957 0 0 0 -0.871,2.162a4.422,4.422 0 0 1 -1.008,-4.041zm2.9,5.157a4.006,4.006 0 0 1 6.8,-2.863l0.039,0.043l0.046,0.051a3.99,3.99 0 0 1 1.115,2.769l0,3.213a5.464,5.464 0 0 0 -1.5,-0.213l-5,0a5.464,5.464 0 0 0 -1.5,0.213l0,-3.213zm6.5,12l-5,0a3.5,3.5 0 0 1 0,-7l5,0a3.5,3.5 0 0 1 0,7z" fill="#96c93d" id="svg_3" stroke="#96C93D" stroke-miterlimit="10" stroke-width="1.5"/>
   <circle cx="10" cy="32.9" fill="#96c93d" id="svg_4" r="1"/>
   <circle cx="14" cy="32.9" fill="#96c93d" id="svg_5" r="1"/>
   <path d="m10,39.9a1,1 0 0 0 -1,1l0,1a1,1 0 0 0 2,0l0,-1a1,1 0 0 0 -1,-1zm4,0a1,1 0 0 0 -1,1l0,1a1,1 0 0 0 2,0l0,-1a1,1 0 0 0 -1,-1zm32,-8a1,1 0 0 0 1,-1c0,-0.459 0.2,-0.657 0.676,-1.1a3.158,3.158 0 0 0 0,-5.142c-0.481,-0.441 -0.676,-0.638 -0.676,-1.1s0.2,-0.654 0.675,-1.094a3.271,3.271 0 0 0 1.325,-2.564a1,1 0 0 0 -2,0c0,0.458 -0.2,0.654 -0.675,1.094a3.156,3.156 0 0 0 0,5.14c0.481,0.441 0.676,0.639 0.676,1.1s-0.2,0.656 -0.676,1.1a3.273,3.273 0 0 0 -1.325,2.566a1,1 0 0 0 1,1zm7.675,-9.431a3.271,3.271 0 0 0 1.325,-2.569a1,1 0 0 0 -2,0c0,0.458 -0.2,0.654 -0.675,1.094a3.156,3.156 0 0 0 0,5.14c0.481,0.441 0.676,0.639 0.676,1.1s-0.2,0.656 -0.676,1.1a3.273,3.273 0 0 0 -1.325,2.566a1,1 0 0 0 2,0c0,-0.459 0.2,-0.657 0.676,-1.1a3.158,3.158 0 0 0 0,-5.142c-0.481,-0.441 -0.676,-0.638 -0.676,-1.1s0.2,-0.649 0.675,-1.089zm-45.675,31.431l-2,0l0,-2a1,1 0 0 0 -2,0l0,3a1,1 0 0 0 1,1l3,0a1,1 0 0 0 0,-2zm41,2l2.649,0a1,1 0 0 0 1,-1.083l-0.253,-3.033a1,1 0 1 0 -1.993,0.166l0.16,1.95l-1.563,0a1,1 0 0 0 0,2z" fill="#96c93d" id="svg_6" stroke="#96C93D" stroke-miterlimit="10" stroke-width="1.5"/>
   <path d="m34.68,50.9l0.983,0l-0.389,4.668a4,4 0 0 0 3.986,4.332l13.479,0a4,4 0 0 0 3.986,-4.332l-0.464,-5.576l3.679,-13.607a2,2 0 0 0 -1.94,-2.485l-17.24,0a4.024,4.024 0 0 0 -3.86,3l-1.72,0a4.025,4.025 0 0 0 -3.987,3.667l-0.5,6a4.008,4.008 0 0 0 3.987,4.333zm6.08,-15l17.24,0l-2.227,8.235l-0.356,-4.27a1,1 0 0 0 -1.993,0.166l1.308,15.7a2,2 0 0 1 -1.993,2.169l-13.479,0a2,2 0 0 1 -1.993,-2.166l1.5,-18a2.012,2.012 0 0 1 1.993,-1.834zm-7.573,4.833a2.011,2.011 0 0 1 1.993,-1.833l1.483,0l-0.833,10l-1.15,0a2.006,2.006 0 0 1 -1.993,-2.167l0.5,-6z" fill="#96c93d" id="svg_7" stroke="#96C93D" stroke-miterlimit="10" stroke-width="1.5"/>
  </g>
 </g>

</svg>