<?xml version="1.0"?>
<svg viewBox="0 0 512 512" xmlns="http://www.w3.org/2000/svg" xmlns:svg="http://www.w3.org/2000/svg" id='thanksgiving'>
 <g class="layer">
  <title>Layer 1</title>
  <path d="m502,288.905l-13.71,0c-5.318,0 -10.481,0.674 -15.411,1.938c-4.544,-24.324 -15.293,-49.031 -31.535,-72.357l5.497,-12.459c4.068,-9.221 5.23,-19.277 3.733,-28.907l13.723,-13.724c12.405,6.109 27.679,3.94 37.991,-6.373c6.263,-6.261 9.711,-14.586 9.711,-23.442c0,-8.855 -3.448,-17.181 -9.71,-23.442c-5.1,-5.101 -11.717,-8.322 -18.7,-9.344c-1.021,-6.982 -4.243,-13.599 -9.344,-18.701c-12.928,-12.926 -33.959,-12.925 -46.885,0c-10.312,10.313 -12.481,25.587 -6.373,37.992l-13.724,13.724c-9.629,-1.497 -19.685,-0.335 -28.907,3.734l-17.273,7.621c-38.153,-22.19 -80.729,-33.9 -123.406,-33.9c-31.511,0 -62.613,6.249 -92.441,18.573c-27.685,11.439 -53.015,27.529 -75.287,47.827c-43.8,39.914 -69.949,91.877 -69.949,139.001c0,13.942 2.269,27.163 6.737,39.487c-3.918,1.354 -6.737,5.066 -6.737,9.444c0,40.804 33.196,73.999 74,73.999l137,0c5.523,0 10,-4.477 10,-10s-4.477,-10 -10,-10l-137,0c-26.359,0 -48.368,-18.986 -53.072,-44l0.921,0l0.022,0.002l0.024,-0.002l469.177,0.001c-4.704,25.013 -26.713,43.999 -53.072,43.999l-137,0c-5.522,0 -10,4.477 -10,10s4.478,10 10,10l137,0c40.804,0 74,-33.196 74,-74a10.001,10.001 0 0 0 -10,-10l-7.355,0c10.734,-11.162 17.355,-26.308 17.355,-42.981l0,-13.709c0,-5.524 -4.478,-10.001 -10,-10.001zm-10,20l0,3.709c0,23.197 -18.872,42.068 -42.068,42.068l-3.71,0l0,-3.709c0,-23.197 18.872,-42.068 42.068,-42.068l3.71,0zm-37.982,-9.646a62.575,62.575 0 0 0 -15.385,14.52c-7.073,-9.566 -18.429,-15.783 -31.212,-15.783c-3.735,0 -7.344,0.541 -10.764,1.531a79.317,79.317 0 0 0 21.638,-28.797l13.425,-30.429c11.811,19.39 19.4,39.44 22.298,58.958zm-46.597,18.737c10.367,0 18.801,8.434 18.801,18.8s-8.434,18.801 -18.801,18.801s-18.801,-8.434 -18.801,-18.801s8.434,-18.8 18.801,-18.8zm-57.602,0c10.367,0 18.801,8.434 18.801,18.8s-8.434,18.801 -18.801,18.801c-10.366,0 -18.8,-8.434 -18.8,-18.801s8.434,-18.8 18.8,-18.8zm91.371,-203.494a13.088,13.088 0 0 1 0.314,-18.266c5.128,-5.128 13.472,-5.128 18.6,-0.001c3.287,3.287 4.582,7.95 3.466,12.473a9.998,9.998 0 0 0 12.105,12.106c4.524,-1.117 9.187,0.179 12.474,3.466c2.484,2.484 3.853,5.787 3.853,9.3s-1.368,6.816 -3.853,9.3a13.09,13.09 0 0 1 -18.267,0.313a10,10 0 0 0 -13.899,0.234l-13.218,13.218a51.142,51.142 0 0 0 -6.716,-8.309a51,51 0 0 0 -8.31,-6.716l13.218,-13.218a10,10 0 0 0 0.233,-13.9zm-54.759,41.339a31.695,31.695 0 0 1 12.801,-2.684c8.34,0 16.591,3.237 22.675,9.321c9.25,9.25 11.917,23.507 6.637,35.476l-28.547,64.703c-8.027,18.196 -23.843,30.729 -43.392,34.386c-19.549,3.656 -38.828,-2.311 -52.89,-16.373c-14.063,-14.062 -20.031,-33.34 -16.374,-52.889s16.191,-35.365 34.386,-43.393l64.704,-28.547zm-303.01,36.605c43.295,-39.454 98.078,-61.182 154.258,-61.182c34.339,0 68.649,8.295 100.253,24.114l-24.277,10.711a79.324,79.324 0 0 0 -45.973,58.013a79.323,79.323 0 0 0 21.891,70.709a79.326,79.326 0 0 0 29.322,18.585a38.595,38.595 0 0 0 -7.875,23.4a38.556,38.556 0 0 0 4.875,18.801l-89.845,0a37.566,37.566 0 0 0 4.498,-17.724c0.036,-10.137 -3.885,-19.675 -11.04,-26.855c-7.156,-7.181 -16.68,-11.136 -26.817,-11.136l-8.873,0c2.191,-26.781 -12.88,-52.703 -38.505,-63.566l-10.046,-4.258a9.998,9.998 0 0 0 -13.04,13.268c6.192,13.933 4.118,29.982 -5.413,41.884l-23.674,29.562c-8.779,10.963 -10.456,25.639 -4.375,38.299c0.086,0.18 0.187,0.349 0.276,0.526l-60.963,0c-5.361,-11.859 -8.078,-24.926 -8.078,-38.931c0,-41.592 23.709,-88.03 63.421,-124.22zm62.283,66.85c14.877,10.539 21.883,29.621 16.534,47.757a10,10 0 0 0 9.592,12.829l20.859,0c4.782,0 9.274,1.866 12.649,5.253a17.733,17.733 0 0 1 5.208,12.667c-0.034,9.812 -8.045,17.795 -17.857,17.795l-71.296,0c-6.381,0 -11.839,-3.433 -14.602,-9.185c-2.763,-5.751 -2.03,-12.158 1.958,-17.138l23.674,-29.563c9.354,-11.68 13.896,-26.039 13.281,-40.415z" fill="#96c93d" id="svg_1" stroke="#96c93d" stroke-miterlimit="10" stroke-width="2"/>
  <path d="m256,419.6c-2.63,0 -5.21,1.06 -7.07,2.92a10.1,10.1 0 0 0 -2.93,7.08c0,2.63 1.069,5.21 2.93,7.07c1.86,1.86 4.44,2.93 7.07,2.93s5.21,-1.07 7.069,-2.93c1.86,-1.87 2.931,-4.44 2.931,-7.07s-1.07,-5.21 -2.931,-7.08a10.062,10.062 0 0 0 -7.069,-2.92z" fill="#96c93d" id="svg_2" stroke="#96C93D" stroke-miterlimit="10" stroke-width="2"/>
 </g>
</svg>