<svg width="32" height="32" viewBox="0 0 32 32" fill="none" xmlns="http://www.w3.org/2000/svg" id='icon10'>
<g clip-path="url(#clip0)">
<path fill-rule="evenodd" clip-rule="evenodd" d="M27.8571 19.3366C27.8372 19.3707 27.8168 19.4032 27.7962 19.4357C27.7825 19.4575 27.7687 19.4794 27.7551 19.5018L26.7896 20.9367C24.8341 23.5217 22.5343 24.7725 20.3491 25.2353L18.9386 25.4329C17.0491 25.5645 15.3337 25.1689 14.1201 24.6421C12.8902 25.9113 11.6605 27.0731 10.4659 28.079L8.94242 29.2885C7.29257 30.5165 5.74995 31.3843 4.42737 31.7339C3.9313 31.8655 3.4133 31.7953 2.96978 31.5372C2.52627 31.2792 2.21019 30.8632 2.0786 30.3672C1.94701 29.8711 2.01718 29.3531 2.27525 28.9096C2.53332 28.4661 2.949 28.1491 3.4453 28.0184C5.31881 27.5232 8.23543 25.2099 11.3237 22.0143C9.68175 19.7411 7.88328 15.4506 11.2462 9.67108C16.5162 0.61428 27.1289 0.0412526 27.5774 0.0220443L27.989 0.00365978L28.1768 0.370094C28.3814 0.770034 33.1271 10.2798 27.8571 19.3366ZM12.3536 10.3154C16.6957 2.85329 25.2222 1.54367 27.2129 1.33751C28.0173 3.17006 31.0918 11.2301 26.7497 18.6922C22.7811 25.5127 17.0821 24.3193 15.078 23.6289C16.145 22.4792 17.2041 21.2603 18.2301 20.0014C20.3204 18.8497 24.7092 18.9191 24.754 18.9199L24.7789 17.6389C24.6319 17.6356 22.0173 17.5943 19.7081 18.1302C20.4422 17.1729 21.151 16.2045 21.8249 15.2374C23.8609 14.5369 26.6629 14.1886 26.854 14.1648L26.8641 14.1636L26.7158 12.8914C26.6157 12.9028 24.8001 13.1189 22.9478 13.5776C23.5621 12.6417 24.1397 11.7141 24.6661 10.8093C25.0872 10.0856 24.9747 9.20267 24.4601 8.59934C25.6124 6.47121 26.2596 4.26109 26.2882 4.16215L25.0581 3.8051C25.0515 3.82793 24.4283 5.95489 23.3487 7.95931C22.575 7.81895 21.7618 8.15807 21.3439 8.87621C21.3107 8.93338 21.2763 8.99085 21.2418 9.04843C21.2158 9.09178 21.1899 9.13519 21.1643 9.17858C20.6059 7.42766 19.8285 5.93844 19.7862 5.85968L18.6532 6.45668C18.6652 6.47926 19.7838 8.62138 20.2481 10.6755C19.3584 12.0797 18.3831 13.4896 17.3593 14.8669C16.651 12.7723 15.4991 10.8213 15.4407 10.7228L14.3394 11.3775C14.3552 11.4038 15.8262 13.8969 16.4007 16.1309C15.0433 17.8803 13.6234 19.5511 12.2217 21.0634C10.6145 18.7393 9.55127 15.1315 12.3536 10.3154ZM3.31709 30.0398C3.40576 30.3753 3.76455 30.5841 4.10002 30.4954C8.3638 29.3684 17.4044 20.7416 23.5587 10.1649C23.7366 9.85931 23.6328 9.46691 23.3272 9.28907C23.0216 9.11122 22.6292 9.21494 22.4513 9.52058C17.1253 18.6737 8.22213 28.0808 3.77266 29.2569C3.60537 29.3011 3.46995 29.4039 3.38264 29.554C3.29533 29.704 3.27287 29.8725 3.31709 30.0398Z" fill="#96C93D"/>
</g>
<defs>
<clipPath id="clip0">
<rect width="32" height="32" fill="white"/>
</clipPath>
</defs>
</svg>