<svg width="32" height="32" viewBox="0 0 32 32" fill="none" xmlns="http://www.w3.org/2000/svg" id='icon12'>
<g clip-path="url(#clip0)">
<path d="M29.6719 0H24.9701C24.5606 0 24.1986 0.265625 24.0758 0.656187L22.3555 6.125H15.4535C15.2441 4.5465 14.5119 3.09231 13.3519 1.97525C12.0293 0.7015 10.2895 0 8.45313 0C4.55881 0 1.39062 3.16825 1.39062 7.0625C1.39062 10.9471 4.54319 14.1089 8.42413 14.1246C9.08425 19.5272 9.73094 24.7993 10.3115 29.5301C10.4844 30.9382 11.6844 32 13.1031 32H22.7838C24.2029 32 25.4031 30.9376 25.5754 29.5289C26.4866 22.0779 27.3989 14.6272 28.3128 7.17662C28.3454 6.91012 28.2623 6.64237 28.0844 6.44125C27.9064 6.24012 27.6508 6.125 27.3823 6.125H24.3211L25.658 1.875H29.6719C30.1897 1.875 30.6094 1.45525 30.6094 0.9375C30.6094 0.41975 30.1896 0 29.6719 0V0ZM9.56581 8H21.7657L20.5074 12H10.0536C9.89119 10.6696 9.72831 9.33431 9.56581 8ZM13.5559 6.125H10.7164L12.7272 4.11419C13.1343 4.70531 13.4223 5.38637 13.5559 6.125ZM11.4014 2.7885L8.45313 5.73669L5.51025 2.79381C6.34706 2.21513 7.36094 1.875 8.45313 1.875C9.54931 1.875 10.5644 2.21194 11.4014 2.7885ZM3.26563 7.0625C3.26563 5.97031 3.60575 4.95644 4.18444 4.11963L7.12731 7.0625L4.18444 10.0054C3.60575 9.16856 3.26563 8.15469 3.26563 7.0625ZM5.51025 11.3312L7.80338 9.03806C7.93375 10.1077 8.06419 11.1771 8.19431 12.2434C7.20094 12.1944 6.28063 11.8639 5.51025 11.3312ZM10.2826 13.875H19.9176L18.135 19.542L16.0719 15.9688C15.8129 15.5203 15.2396 15.3667 14.7913 15.6256L11.0072 17.8103C10.9239 17.8584 10.8496 17.9188 10.7856 17.9884C10.6194 16.6303 10.4514 15.257 10.2826 13.875ZM19.7658 20.9929L21.5769 21.4782L21.0916 23.2893L19.2804 22.8041L19.7658 20.9929ZM16.1641 19.8784L14.0039 21.1256L12.7566 18.9654L14.9169 17.7182L16.1641 19.8784ZM12.1726 29.3017C11.8008 26.2721 11.4019 23.0205 10.9897 19.6549L12.8488 22.875C13.0224 23.1758 13.3376 23.3439 13.6616 23.3439C13.8206 23.3439 13.9818 23.3034 14.1294 23.2181L17.7389 21.1342C17.7444 21.1676 17.7513 21.2006 17.7603 21.2331L17.2267 23.2243C17.1624 23.4645 17.1961 23.7204 17.3204 23.9357C17.4447 24.151 17.6495 24.3081 17.8896 24.3725L18.5098 24.5386C18.3908 24.5541 18.2728 24.5926 18.1623 24.6564L14.9147 26.5314C14.6994 26.6557 14.5423 26.8604 14.4779 27.1006C14.4136 27.3408 14.4473 27.5967 14.5716 27.812L15.9069 30.125H13.1031C12.6225 30.125 12.2311 29.7787 12.1726 29.3017ZM17.6016 29.3102L16.6641 27.6864L18.2879 26.7489L19.2254 28.3727L17.6016 29.3102ZM23.7143 29.3013C23.6559 29.7786 23.2646 30.125 22.7838 30.125H19.9403L20.9748 29.5278C21.1901 29.4034 21.3472 29.1987 21.4116 28.9585C21.4759 28.7183 21.4422 28.4624 21.3179 28.2471L19.4429 24.9995C19.3791 24.8891 19.2962 24.7967 19.2008 24.7238L21.5118 25.343C21.593 25.3648 21.6746 25.3752 21.755 25.3752C22.1689 25.3752 22.5478 25.0989 22.6599 24.6801L23.6305 21.0579C23.7645 20.5577 23.4678 20.0437 22.9676 19.9097L20.2167 19.1726L21.8832 13.875H25.6033C24.9733 19.0171 24.3431 24.1591 23.7143 29.3013ZM26.3228 8C26.1593 9.33331 25.9964 10.6667 25.8329 12H22.473L23.7313 8H26.3228Z" fill="#96C93D"/>
</g>
<defs>
<clipPath id="clip0">
<rect width="32" height="32" fill="white"/>
</clipPath>
</defs>
</svg>