<svg width="32" height="32" viewBox="0 0 32 32" fill="none" xmlns="http://www.w3.org/2000/svg" id='icon4'>
<g clip-path="url(#clip0)">
<path d="M22.5062 15.5283L20.1355 16.3739C19.6478 16.5479 19.3934 17.0843 19.5674 17.572C19.6544 17.8159 19.832 18.0014 20.0487 18.1041C20.2655 18.2069 20.5216 18.2271 20.7654 18.1401L23.1361 17.2944C23.6238 17.1205 23.8782 16.5841 23.7042 16.0964C23.5303 15.6087 22.9939 15.3543 22.5062 15.5283Z" fill="#96C93D"/>
<path fill-rule="evenodd" clip-rule="evenodd" d="M28.1825 10.9015C26.7658 9.48105 25.0037 8.53198 23.0853 8.1312L23.0882 8.12854C23.1299 8.08942 23.1716 8.05027 23.2124 8.00956C25.6337 5.58826 25.2271 1.42726 25.2087 1.25131C25.1624 0.81109 24.8145 0.463126 24.3743 0.416873C24.1984 0.398559 20.0374 -0.00809574 17.616 2.41321C16.784 3.24521 16.2859 4.2826 15.9912 5.29317C15.5837 4.54955 15.0184 3.80812 14.2386 3.13151C13.8641 2.54022 12.3764 0.415373 10.1357 0.054096C7.58338 -0.357372 5.23902 1.71066 5.14045 1.79885C4.81068 2.09418 4.73236 2.57991 4.95263 2.96387C5.01845 3.07863 6.594 5.77871 9.14631 6.19024C9.37683 6.22743 9.60566 6.24437 9.8313 6.24437C11.3227 6.24437 12.6743 5.50425 13.4526 4.97271C14.266 5.83252 14.7904 6.88717 15.0126 8.11851C15.054 8.34821 15.0813 8.56692 15.0986 8.77037C13.8177 8.20783 12.4292 7.91468 11.0111 7.91468C8.2915 7.91468 5.73587 8.97545 3.81492 10.9015C1.90034 12.8211 0.835509 15.3785 0.816695 18.1026C0.800444 20.4537 1.46906 22.581 2.92104 24.7974C4.23132 26.7975 6.09077 28.7142 8.04154 30.6648C9.03168 31.6549 10.0516 31.9999 11.0491 31.9998C12.3353 31.9997 13.584 31.426 14.6813 30.9218L14.6818 30.9216C15.1161 30.722 15.5622 30.517 15.9988 30.3488C16.4354 30.517 16.8816 30.722 17.3158 30.9216L17.3164 30.9218L17.3165 30.9219C18.4138 31.4261 19.6623 31.9998 20.9485 31.9998C21.9459 31.9998 22.9662 31.6548 23.9561 30.6648C25.9068 28.7141 27.7663 26.7975 29.0766 24.7974C30.5285 22.581 31.1972 20.4537 31.1809 18.1026C31.1619 15.3787 30.0971 12.8212 28.1825 10.9015ZM9.44477 4.3391C8.40926 4.17215 7.55651 3.32546 7.05778 2.70579C7.72652 2.27389 8.8021 1.73847 9.83724 1.90536C10.8721 2.07225 11.7244 2.91781 12.2233 3.53742C11.553 3.96876 10.4749 4.50505 9.44477 4.3391ZM17.5449 6.99911C17.6764 6.01779 18.0253 4.65562 18.9419 3.73912C20.1902 2.49084 22.2387 2.27426 23.368 2.25788C23.3634 2.5841 23.3419 2.98669 23.2833 3.42366C23.1519 4.40498 22.8029 5.76714 21.8864 6.68365C20.638 7.93193 18.5895 8.14851 17.4602 8.16482C17.4649 7.83867 17.4864 7.43602 17.5449 6.99911ZM13.8982 29.2181C11.8626 30.1535 10.6486 30.6202 9.36733 29.3391C5.31603 25.2877 2.66264 22.3178 2.69171 18.1157C2.69388 17.802 2.71298 17.4911 2.74856 17.184C2.88055 17.2152 3.02056 17.2469 3.17212 17.2812L3.17213 17.2812C3.46786 17.3482 3.80754 17.4251 4.21739 17.5276C5.35523 17.812 6.24576 17.9465 7.42252 17.6355C7.89137 18.6738 9.04741 19.2 10.3992 19.2C12.1638 19.2 13.5948 18.3034 13.5992 16.5415C14.1875 16.4464 14.8591 16.3206 15.5488 16.1605C16.9562 15.834 18.5359 15.3436 19.6153 14.624C21.5331 13.3455 22.9508 11.3764 23.6837 10.2366C24.8648 10.6419 25.9468 11.3153 26.8549 12.2257C28.4199 13.7949 29.2903 15.8867 29.3057 18.1157C29.3347 22.3178 26.6814 25.2877 22.6301 29.3391C21.3487 30.6204 20.1347 30.1535 18.0992 29.2181C17.8423 29.1 17.5814 28.9803 17.3164 28.8649C17.3164 28.8649 16.3992 28.8 15.9992 28.8C15.5992 28.8 14.681 28.8649 14.681 28.8649C14.416 28.9803 14.1551 29.1001 13.8982 29.2181ZM22.1289 9.86755C21.3937 10.9449 20.2333 12.4093 18.7833 13.3759C17.9427 13.9363 16.589 14.3793 15.2098 14.6994C14.4754 14.8698 13.7614 14.9993 13.1592 15.0925C12.6614 14.5449 11.7414 14.4 10.3992 14.4C8.4373 14.4 7.37752 14.7096 7.21988 16.1339C6.29095 16.4176 5.65964 16.342 4.58119 16.0724C4.0442 15.9381 3.6526 15.8495 3.34619 15.7802C3.2389 15.7559 3.14205 15.734 3.05307 15.7133C3.44778 14.4078 4.15759 13.2132 5.14252 12.2257C6.70913 10.6549 8.79329 9.78988 11.011 9.78988C12.2813 9.78988 13.5217 10.0784 14.6484 10.6292C14.6484 10.6292 15.5992 10.8 15.9992 10.8C16.3992 10.8 17.1992 10.7043 17.1992 10.7043C18.3654 10.1047 19.6595 9.78994 20.9864 9.78994C21.3719 9.78994 21.7535 9.81609 22.1289 9.86755Z" fill="#96C93D"/>
<path d="M15.5984 22.8C13.3584 22.8 11.1984 22.4 9.59961 21.6C9.59961 23.2 10.3996 24.8 11.599 25.6C12.7103 26.3412 17.5986 27.1996 19.1989 26C20.7996 24.8 21.5984 23.2 21.5989 21.6C19.9984 22.4 17.8384 22.8 15.5984 22.8Z" stroke="#96C93D" stroke-width="1.5" stroke-linecap="round" stroke-linejoin="round"/>
</g>
<defs>
<clipPath id="clip0">
<rect width="32" height="32" fill="#96C93D"/>
</clipPath>
</defs>
</svg>