<svg width="32" height="32" viewBox="0 0 32 32" fill="none" xmlns="http://www.w3.org/2000/svg" id='icon8'>
<g clip-path="url(#clip0)">
<path d="M7.89538 9.52259C3.31073 14.1072 1.98465 21.0087 4.53906 26.9691L4.68679 27.3137L5.03142 27.4614C10.991 30.0155 17.8926 28.6904 22.4779 24.1051L23.9558 22.6272L25.2815 23.9529L25.9443 23.29C29.2337 20.0006 29.2337 14.6483 25.9443 11.3589L23.9558 9.37035C26.1617 7.16442 26.1905 3.56258 24 1.37207L22.6743 2.69775C24.1363 4.15971 24.1164 6.55836 22.6301 8.04467L20.6416 6.05615C17.3522 2.76673 11.9999 2.76673 8.71046 6.05615L8.04761 6.71899L9.3733 8.04467L7.89538 9.52259ZM21.1522 22.7794C18.1958 25.7358 14.1924 27.155 10.1952 26.8356C11.4831 26.4539 12.8367 25.7922 13.969 24.6598L12.6434 23.3342C10.7456 25.232 7.90762 25.4612 6.54977 25.4508C6.53929 24.0919 6.76877 21.2547 8.66627 19.3572L7.34058 18.0315C6.20827 19.1638 5.54654 20.5174 5.16487 21.8053C4.84547 17.8081 6.2647 13.8046 9.22102 10.8483L10.7374 9.33191C11.8541 10.2187 13.1838 10.8027 14.5973 11.0345C13.3857 12.9383 13.0303 15.3513 13.7868 17.6209L13.935 18.0655L14.3796 18.2137C16.5507 18.9374 18.9753 18.6701 20.9659 17.4032C21.1979 18.8167 21.7819 20.1463 22.6686 21.2631L21.1522 22.7794ZM19.3159 7.38183L24.6186 12.6846C26.9521 15.018 27.1572 18.6861 25.2343 21.2543L24.6186 20.6387C23.2984 19.3185 22.6148 17.4668 22.7429 15.5584L22.9101 13.0675L20.9546 15.023C19.4924 16.4852 17.4135 17.0565 15.4322 16.5682C14.944 14.587 15.5153 12.5081 16.9775 11.0459L18.933 9.09041L16.4421 9.25763C14.5337 9.38569 12.682 8.70203 11.3618 7.38183L10.7462 6.76618C13.3143 4.84319 16.9825 5.04841 19.3159 7.38183Z" fill="#96C93D"/>
</g>
<defs>
<clipPath id="clip0">
<rect width="32" height="32" fill="white"/>
</clipPath>
</defs>
</svg>