<svg xmlns="http://www.w3.org/2000/svg" viewBox="0 0 590 590"><g class="layer"><path fill="#96c93d" stroke="#96C93D" stroke-miterlimit="10" stroke-width="2" d="M545.658 274.874c-42.821-76.235-113.033-122.75-195.22-131.207C309.122 91.733 179.83 78.854 174.25 78.324c-3.636-.366-7.29 1.225-9.511 4.19a10.632 10.632 0 0 0-1.434 10.284c12.75 32.866 25.82 70.253 29.292 85.553-23.448 10.795-43.938 22.265-57.143 31.814-28.795-45.829-87.359-46.265-90.036-46.259a10.66 10.66 0 0 0-10.642 10.692c.145 61.802 21.76 92.773 36.198 106.583-14.374 13.877-35.844 44.948-35.7 106.75a10.66 10.66 0 0 0 10.693 10.642c2.677-.006 61.238-.716 89.818-46.68 17.602 12.606 48.024 28.526 81.257 41.742-7.31 11.884-11.015 30.768-10.951 57.897a10.66 10.66 0 0 0 10.692 10.642c3.172-.008 75.706-.806 111.731-43.264 91.866-1.99 170.861-50.29 217.168-133.64a10.67 10.67 0 0 0-.024-10.396zm-356.146-173.22c35.853 5.104 94.724 17.73 128.03 40.5-30.658 1.27-69.75 12.953-105.18 27.581-4.765-18.738-15.31-48.007-22.85-68.081zM227.647 440.2c1.352-29.674 8.18-37.273 10.096-38.83 20.803 7.248 41.876 12.997 61.006 15.862-23.1 16.335-54.632 21.476-71.102 22.968zm8.857-39.218.004-.03c.029.01.059.019.087.03-.06-.008-.027.009-.091 0zm86.795-3.057c-62.333.146-164.37-50.793-183.29-70.062a10.647 10.647 0 0 0-7.632-3.19c-.646.001-1.302.066-1.947.181a10.67 10.67 0 0 0-7.83 6.279c-14.318 33.418-48.15 42.612-65.738 45.143 3.176-66.851 34.77-84.79 36.394-85.658 3.505-1.81 5.664-5.451 5.707-9.398.042-3.99-2.206-7.703-5.742-9.57-1.428-.757-33.293-18.422-36.803-85.435 17.589 2.532 51.59 11.702 65.948 44.773a10.667 10.667 0 0 0 7.859 6.241 10.626 10.626 0 0 0 9.566-3.053c18.83-19.357 120.627-70.772 182.96-70.917 84.219-.197 157.266 42.31 201.315 116.863-43.7 74.759-116.548 117.606-200.767 117.803z"/><circle cx="418.999" cy="249.665" r="21.333" fill="#96c93d"/></g></svg>