<svg xmlns="http://www.w3.org/2000/svg" viewBox="0 0 60 60"><g class="layer"><g fill="#96c93d"><path stroke="#96C93D" stroke-miterlimit="10" stroke-width="1.5" d="M11 1.9v4.611L.263 18.224a.924.924 0 0 0-.077.128.99.99 0 0 0-.113.187.914.914 0 0 0-.044.22A.84.84 0 0 0 0 18.9v40a1 1 0 0 0 1 1h31.95a1 1 0 0 0 0-2H24v-38h15v11.04a1 1 0 0 0 2 0V18.9a.84.84 0 0 0-.029-.141.914.914 0 0 0-.044-.22.99.99 0 0 0-.113-.187.924.924 0 0 0-.077-.128L30 6.511V1.9a2 2 0 0 0-2-2H13a2 2 0 0 0-2 2zm-7.727 16L12 8.38l8.727 9.52H3.273zM22 57.9H2v-38h20v38zm15.727-40H23.44l-9.167-10H28.56l9.167 10zM13 1.9h15v4H13v-4z"/><path stroke="#96C93D" stroke-miterlimit="10" stroke-width="1.5" d="M18 37.161v-2.89a6.721 6.721 0 0 0 2.224-8.82 1 1 0 0 0-1.6-.258l-2.958 2.958a5.984 5.984 0 0 0-7.327 0l-2.962-2.958a1 1 0 0 0-1.6.258A6.721 6.721 0 0 0 6 34.271v2.89A5.5 5.5 0 0 0 9.5 46.9h5a5.5 5.5 0 0 0 3.5-9.739zm.9-9.412a4.469 4.469 0 0 1-1 4.029 5.961 5.961 0 0 0-.874-2.154l1.874-1.875zm-13.8-.006 1.879 1.879a5.957 5.957 0 0 0-.871 2.162A4.422 4.422 0 0 1 5.1 27.743zM8 32.9a4.006 4.006 0 0 1 6.8-2.863l.039.043.046.051A3.99 3.99 0 0 1 16 32.9v3.213a5.464 5.464 0 0 0-1.5-.213h-5a5.464 5.464 0 0 0-1.5.213V32.9zm6.5 12h-5a3.5 3.5 0 0 1 0-7h5a3.5 3.5 0 0 1 0 7z"/><circle cx="10" cy="32.9" r="1"/><circle cx="14" cy="32.9" r="1"/><path stroke="#96C93D" stroke-miterlimit="10" stroke-width="1.5" d="M10 39.9a1 1 0 0 0-1 1v1a1 1 0 0 0 2 0v-1a1 1 0 0 0-1-1zm4 0a1 1 0 0 0-1 1v1a1 1 0 0 0 2 0v-1a1 1 0 0 0-1-1zm32-8a1 1 0 0 0 1-1c0-.459.2-.657.676-1.1a3.158 3.158 0 0 0 0-5.142c-.481-.441-.676-.638-.676-1.1s.2-.654.675-1.094A3.271 3.271 0 0 0 49 19.9a1 1 0 0 0-2 0c0 .458-.2.654-.675 1.094a3.156 3.156 0 0 0 0 5.14c.481.441.676.639.676 1.1s-.2.656-.676 1.1A3.273 3.273 0 0 0 45 30.9a1 1 0 0 0 1 1zm7.675-9.431A3.271 3.271 0 0 0 55 19.9a1 1 0 0 0-2 0c0 .458-.2.654-.675 1.094a3.156 3.156 0 0 0 0 5.14c.481.441.676.639.676 1.1s-.2.656-.676 1.1A3.273 3.273 0 0 0 51 30.9a1 1 0 0 0 2 0c0-.459.2-.657.676-1.1a3.158 3.158 0 0 0 0-5.142c-.481-.441-.676-.638-.676-1.1s.2-.649.675-1.089zM8 53.9H6v-2a1 1 0 0 0-2 0v3a1 1 0 0 0 1 1h3a1 1 0 0 0 0-2zm41 2h2.649a1 1 0 0 0 1-1.083l-.253-3.033a1 1 0 1 0-1.993.166l.16 1.95H49a1 1 0 0 0 0 2z"/><path stroke="#96C93D" stroke-miterlimit="10" stroke-width="1.5" d="M34.68 50.9h.983l-.389 4.668A4 4 0 0 0 39.26 59.9h13.479a4 4 0 0 0 3.986-4.332l-.464-5.576 3.679-13.607A2 2 0 0 0 58 33.9H40.76a4.024 4.024 0 0 0-3.86 3h-1.72a4.025 4.025 0 0 0-3.987 3.667l-.5 6A4.008 4.008 0 0 0 34.68 50.9zm6.08-15H58l-2.227 8.235-.356-4.27a1 1 0 0 0-1.993.166l1.308 15.7a2 2 0 0 1-1.993 2.169H39.26a2 2 0 0 1-1.993-2.166l1.5-18A2.012 2.012 0 0 1 40.76 35.9zm-7.573 4.833A2.011 2.011 0 0 1 35.18 38.9h1.483l-.833 10h-1.15a2.006 2.006 0 0 1-1.993-2.167l.5-6z"/></g></g></svg>